<svg version="1.1" xmlns="http://www.w3.org/2000/svg" style="display: block;" viewBox="0 0 1842 2048" width="932" height="1036" preserveAspectRatio="none">
<defs>
	<linearGradient id="Gradient1" gradientUnits="userSpaceOnUse" x1="490.646" y1="1465.53" x2="850.633" y2="1464.61">
		<stop class="stop0" offset="0" stop-opacity="1" stop-color="rgb(113,168,146)"/>
		<stop class="stop1" offset="1" stop-opacity="1" stop-color="rgb(99,144,155)"/>
	</linearGradient>
	<linearGradient id="Gradient2" gradientUnits="userSpaceOnUse" x1="293.681" y1="717.458" x2="247.593" y2="711.447">
		<stop class="stop0" offset="0" stop-opacity="1" stop-color="rgb(73,90,124)"/>
		<stop class="stop1" offset="1" stop-opacity="1" stop-color="rgb(87,135,133)"/>
	</linearGradient>
	<linearGradient id="Gradient3" gradientUnits="userSpaceOnUse" x1="247.863" y1="581.283" x2="994.115" y2="592.089">
		<stop class="stop0" offset="0" stop-opacity="1" stop-color="rgb(123,185,140)"/>
		<stop class="stop1" offset="1" stop-opacity="1" stop-color="rgb(93,135,159)"/>
	</linearGradient>
	<linearGradient id="Gradient4" gradientUnits="userSpaceOnUse" x1="1137.32" y1="1873.4" x2="1135.77" y2="1869.8">
		<stop class="stop0" offset="0" stop-opacity="1" stop-color="rgb(87,121,166)"/>
		<stop class="stop1" offset="1" stop-opacity="1" stop-color="rgb(73,100,141)"/>
	</linearGradient>
	<linearGradient id="Gradient5" gradientUnits="userSpaceOnUse" x1="1045.31" y1="1909.34" x2="1044.18" y2="1905.36">
		<stop class="stop0" offset="0" stop-opacity="1" stop-color="rgb(89,125,162)"/>
		<stop class="stop1" offset="1" stop-opacity="1" stop-color="rgb(72,101,139)"/>
	</linearGradient>
	<linearGradient id="Gradient6" gradientUnits="userSpaceOnUse" x1="1117.28" y1="214.282" x2="1115.39" y2="219.04">
		<stop class="stop0" offset="0" stop-opacity="1" stop-color="rgb(83,122,164)"/>
		<stop class="stop1" offset="1" stop-opacity="1" stop-color="rgb(53,67,111)"/>
	</linearGradient>
	<linearGradient id="Gradient7" gradientUnits="userSpaceOnUse" x1="1311.64" y1="309.846" x2="1309.53" y2="313.843">
		<stop class="stop0" offset="0" stop-opacity="1" stop-color="rgb(73,108,164)"/>
		<stop class="stop1" offset="1" stop-opacity="1" stop-color="rgb(57,62,117)"/>
	</linearGradient>
	<linearGradient id="Gradient8" gradientUnits="userSpaceOnUse" x1="1195.34" y1="249.753" x2="1193.52" y2="253.527">
		<stop class="stop0" offset="0" stop-opacity="1" stop-color="rgb(80,114,161)"/>
		<stop class="stop1" offset="1" stop-opacity="1" stop-color="rgb(61,77,128)"/>
	</linearGradient>
	<linearGradient id="Gradient9" gradientUnits="userSpaceOnUse" x1="996.669" y1="1770.7" x2="989.233" y2="1856.43">
		<stop class="stop0" offset="0" stop-opacity="1" stop-color="rgb(58,80,102)"/>
		<stop class="stop1" offset="1" stop-opacity="1" stop-color="rgb(82,118,158)"/>
	</linearGradient>
	<linearGradient id="Gradient10" gradientUnits="userSpaceOnUse" x1="1668.62" y1="833.226" x2="1739.12" y2="820.018">
		<stop class="stop0" offset="0" stop-opacity="1" stop-color="rgb(43,46,117)"/>
		<stop class="stop1" offset="1" stop-opacity="1" stop-color="rgb(55,69,151)"/>
	</linearGradient>
	<linearGradient id="Gradient11" gradientUnits="userSpaceOnUse" x1="466.553" y1="1741.74" x2="456.07" y2="1759.27">
		<stop class="stop0" offset="0" stop-opacity="1" stop-color="rgb(93,130,136)"/>
		<stop class="stop1" offset="1" stop-opacity="1" stop-color="rgb(110,154,147)"/>
	</linearGradient>
	<linearGradient id="Gradient12" gradientUnits="userSpaceOnUse" x1="437.117" y1="611.305" x2="36.8626" y2="669.553">
		<stop class="stop0" offset="0" stop-opacity="1" stop-color="rgb(73,117,124)"/>
		<stop class="stop1" offset="1" stop-opacity="1" stop-color="rgb(114,160,139)"/>
	</linearGradient>
	<linearGradient id="Gradient13" gradientUnits="userSpaceOnUse" x1="71.9337" y1="1050.3" x2="779.599" y2="1048.94">
		<stop class="stop0" offset="0" stop-opacity="1" stop-color="rgb(132,199,137)"/>
		<stop class="stop1" offset="1" stop-opacity="1" stop-color="rgb(102,147,155)"/>
	</linearGradient>
	<linearGradient id="Gradient14" gradientUnits="userSpaceOnUse" x1="218.34" y1="1163.34" x2="824.994" y2="1166.64">
		<stop class="stop0" offset="0" stop-opacity="1" stop-color="rgb(123,189,138)"/>
		<stop class="stop1" offset="1" stop-opacity="1" stop-color="rgb(99,146,154)"/>
	</linearGradient>
	<linearGradient id="Gradient15" gradientUnits="userSpaceOnUse" x1="1077.05" y1="716.903" x2="1072.59" y2="719.238">
		<stop class="stop0" offset="0" stop-opacity="1" stop-color="rgb(91,123,164)"/>
		<stop class="stop1" offset="1" stop-opacity="1" stop-color="rgb(68,82,130)"/>
	</linearGradient>
	<linearGradient id="Gradient16" gradientUnits="userSpaceOnUse" x1="897.252" y1="783.506" x2="1171.2" y2="818.962">
		<stop class="stop0" offset="0" stop-opacity="1" stop-color="rgb(99,140,159)"/>
		<stop class="stop1" offset="1" stop-opacity="1" stop-color="rgb(86,121,163)"/>
	</linearGradient>
	<linearGradient id="Gradient17" gradientUnits="userSpaceOnUse" x1="768.34" y1="974.276" x2="1131.38" y2="996.421">
		<stop class="stop0" offset="0" stop-opacity="1" stop-color="rgb(103,149,154)"/>
		<stop class="stop1" offset="1" stop-opacity="1" stop-color="rgb(88,125,163)"/>
	</linearGradient>
	<linearGradient id="Gradient18" gradientUnits="userSpaceOnUse" x1="762.234" y1="360.604" x2="756.265" y2="366.871">
		<stop class="stop0" offset="0" stop-opacity="1" stop-color="rgb(80,102,136)"/>
		<stop class="stop1" offset="1" stop-opacity="1" stop-color="rgb(94,129,144)"/>
	</linearGradient>
	<linearGradient id="Gradient19" gradientUnits="userSpaceOnUse" x1="911.979" y1="341.376" x2="900.968" y2="306.268">
		<stop class="stop0" offset="0" stop-opacity="1" stop-color="rgb(50,56,93)"/>
		<stop class="stop1" offset="1" stop-opacity="1" stop-color="rgb(66,112,140)"/>
	</linearGradient>
	<linearGradient id="Gradient20" gradientUnits="userSpaceOnUse" x1="761.756" y1="459.292" x2="1270.06" y2="430.119">
		<stop class="stop0" offset="0" stop-opacity="1" stop-color="rgb(105,149,155)"/>
		<stop class="stop1" offset="1" stop-opacity="1" stop-color="rgb(81,115,166)"/>
	</linearGradient>
	<linearGradient id="Gradient21" gradientUnits="userSpaceOnUse" x1="1214.02" y1="1140.43" x2="1205.44" y2="1145.2">
		<stop class="stop0" offset="0" stop-opacity="1" stop-color="rgb(80,106,157)"/>
		<stop class="stop1" offset="1" stop-opacity="1" stop-color="rgb(72,82,135)"/>
	</linearGradient>
	<linearGradient id="Gradient22" gradientUnits="userSpaceOnUse" x1="908.674" y1="1431.45" x2="1277.99" y2="1428.88">
		<stop class="stop0" offset="0" stop-opacity="1" stop-color="rgb(98,138,159)"/>
		<stop class="stop1" offset="1" stop-opacity="1" stop-color="rgb(82,115,167)"/>
	</linearGradient>
	<linearGradient id="Gradient23" gradientUnits="userSpaceOnUse" x1="1211.58" y1="1336.09" x2="1589.27" y2="1335.31">
		<stop class="stop0" offset="0" stop-opacity="1" stop-color="rgb(85,118,165)"/>
		<stop class="stop1" offset="1" stop-opacity="1" stop-color="rgb(69,93,174)"/>
	</linearGradient>
	<linearGradient id="Gradient24" gradientUnits="userSpaceOnUse" x1="755.855" y1="1322.31" x2="1144.64" y2="1326.31">
		<stop class="stop0" offset="0" stop-opacity="1" stop-color="rgb(103,150,153)"/>
		<stop class="stop1" offset="1" stop-opacity="1" stop-color="rgb(88,124,164)"/>
	</linearGradient>
	<linearGradient id="Gradient25" gradientUnits="userSpaceOnUse" x1="1305.92" y1="497.217" x2="1306.67" y2="504.652">
		<stop class="stop0" offset="0" stop-opacity="1" stop-color="rgb(78,108,166)"/>
		<stop class="stop1" offset="1" stop-opacity="1" stop-color="rgb(61,78,128)"/>
	</linearGradient>
	<linearGradient id="Gradient26" gradientUnits="userSpaceOnUse" x1="1061.49" y1="827.229" x2="1594.72" y2="823.493">
		<stop class="stop0" offset="0" stop-opacity="1" stop-color="rgb(91,129,162)"/>
		<stop class="stop1" offset="1" stop-opacity="1" stop-color="rgb(69,93,175)"/>
	</linearGradient>
	<linearGradient id="Gradient27" gradientUnits="userSpaceOnUse" x1="743.777" y1="1050.65" x2="1746.01" y2="1049.73">
		<stop class="stop0" offset="0" stop-opacity="1" stop-color="rgb(104,151,154)"/>
		<stop class="stop1" offset="1" stop-opacity="1" stop-color="rgb(63,81,178)"/>
	</linearGradient>
</defs>
<path transform="translate(0,0)" fill="url(#Gradient27)" d="M 805.102 175.005 C 884.29 158.213 959.363 157.599 1036.72 183.917 C 1050.85 189.144 1065.5 194.815 1079.86 199.167 C 1095.04 204.034 1120.83 213.168 1134.65 220.761 C 1165.29 233.228 1186.73 245.084 1215.87 257.791 C 1220.97 260.358 1247.32 273.241 1249.9 276.744 C 1254.92 278.194 1274.8 288.326 1278.94 291.28 C 1295.92 300.076 1334.14 318.562 1348.33 328.487 C 1408.99 362.435 1467.09 400.766 1522.17 443.176 C 1553.21 467.506 1601.09 507.654 1625.88 537.675 C 1638.6 549.096 1670.11 593.53 1678.74 609.141 C 1712.95 670.974 1729.88 746.024 1738.91 815.6 C 1741.82 838.024 1746.64 854.865 1746.91 878.507 C 1747.2 903.698 1751.75 931.529 1752.59 956.607 C 1753.72 990.254 1753.65 1024.65 1754.06 1058.32 C 1754.17 1067.1 1754.44 1103.74 1753.17 1110.62 C 1753.46 1122.72 1753.29 1138.57 1752.16 1150.6 C 1751.04 1169.72 1748.81 1188.83 1747.68 1207.83 C 1746.52 1238.64 1744.79 1264 1738.74 1294.28 C 1738.08 1297.57 1736.44 1310.3 1735.45 1312.66 C 1731.44 1337.07 1723.24 1377.42 1714.42 1400.3 C 1712.76 1409.76 1707.58 1422.73 1704.23 1431.93 C 1688.1 1476.28 1663.56 1518.94 1630.73 1553.19 C 1617.82 1567.97 1584.42 1600.81 1569.16 1613.75 C 1559.47 1624.19 1547.78 1631.96 1536.74 1640.87 C 1462.96 1700.45 1381.49 1750.65 1298.81 1796.83 C 1288.4 1802.65 1278.27 1809.51 1267.76 1814.89 C 1229.37 1834.42 1193.31 1852.81 1153.22 1868.81 C 1146.73 1871.71 1132.15 1878.64 1126.08 1880.63 C 1120.18 1883.78 1090.39 1896.03 1084.02 1897.45 C 1066.07 1904.81 1049 1912.17 1029.77 1915.65 L 1024.67 1916.73 C 1013.62 1920.94 997.653 1923.59 985.995 1926.56 C 883.796 1952.61 777.86 1919.82 684.011 1878.59 L 673.297 1873.86 C 566.236 1828.91 461.825 1768.24 365.486 1703.61 C 343.841 1689.28 322.621 1674.32 301.853 1658.74 C 293.934 1652.86 281.799 1644.23 274.637 1637.91 C 270.405 1635.12 248.539 1614.94 244.762 1610.88 C 164.454 1553.28 106.55 1452.76 88.8531 1357.01 C 82.912 1324.87 76.8188 1290.98 72.4178 1258.61 C 62.4842 1185.56 62.2873 1113.06 63.2414 1039.46 C 63.9451 988.683 60.7313 936.565 66.5982 886.091 C 71.1674 870.212 71.3856 853.952 73.5104 837.678 C 78.5524 799.06 83.0065 757.979 93.3933 720.452 C 105.184 677.851 120.005 634.935 143.123 597.073 C 201.24 501.892 341.115 399.173 437.876 344.481 C 440.566 342.052 464.647 328.118 468.684 325.723 C 532.965 287.517 599.626 253.466 668.257 223.779 C 687.194 215.61 704.913 206.514 724.674 200.291 C 743.943 193.439 763.403 185.129 783.256 180.467 C 790.303 177.811 797.634 175.978 805.102 175.005 z M 997.352 591.83 C 999.717 594.976 1002.31 598.28 1004.53 601.499 C 1000.48 606.487 973.971 631.256 968.022 635.435 C 959.892 643.561 951.108 650.542 942.94 658.603 C 928.765 672.592 915.081 688.454 901.472 702.769 C 887.259 717.719 866.445 751.349 850.609 762.115 C 805.313 747.266 761.526 734.03 714.496 725.123 C 703.822 723.101 691.952 723.584 682.039 721.899 C 663.951 718.824 651.926 715.981 633.259 715.196 C 589.913 711.693 546.338 712.166 503.078 716.609 C 491.527 717.871 480.416 720.156 468.958 721.845 C 456.42 723.693 443.025 723.75 430.578 726.381 C 382.245 736.598 334.819 752.211 289.727 772.409 C 277.173 778.032 264.433 784.218 251.614 788.77 C 248.505 790.333 240.775 792.75 237.101 793.993 C 234.59 760.192 258.208 699.876 277.214 671.651 C 286.234 651.391 333.492 609.347 350.372 590.819 C 398.256 548.866 445.193 516.37 498.599 482.415 C 528.501 463.024 559.115 444.754 590.379 427.645 C 619.903 411.681 649.355 397.518 679.475 382.892 C 692.565 376.536 695.581 376.753 708.787 381.152 C 750.849 398.742 789.535 417.378 827.939 442.253 C 839.365 449.654 850.774 455.857 861.369 464.638 C 896.948 492.049 930.642 517.784 961.319 550.673 C 974.989 565.329 985.779 574.957 997.352 591.83 z M 410.139 763.376 C 415.824 760.967 457.099 753.307 463.638 752.654 C 476.301 748.648 515.334 745.031 528.923 744.885 C 540.255 743.38 630.141 742.748 638.638 745.793 C 659.255 746.649 690.486 750.827 711.204 754.527 C 728.956 757.697 819.201 780.852 828.268 790.704 C 829.582 792.132 830.363 794.036 830.992 795.843 L 830.027 797.154 C 824.193 810.939 815.94 824.294 808.827 837.525 C 799.304 855.224 790.618 873.36 782.798 891.875 C 766.644 930.077 752.129 969.465 742.67 1009.85 C 741.119 1016.47 739.762 1023.89 737.652 1030.3 C 734.009 1048.22 729.033 1075.75 727.132 1093.67 C 726.846 1098.49 725.01 1133.26 724.304 1135.86 C 723.611 1153.48 723.996 1174.26 709.763 1186.05 C 702.269 1192.26 691.46 1201.27 683.416 1206.6 C 677.303 1214.07 668.647 1220.88 662.2 1227.68 C 648.053 1242.61 619.089 1269.65 608.121 1285.62 C 565.525 1326.79 503.719 1442.73 483.299 1498.23 C 477.576 1514.11 472.227 1530.12 467.257 1546.24 C 464.058 1556.75 459.663 1573.98 454.945 1583.44 C 445.464 1578.43 388.37 1536.31 380.814 1528.75 C 362.093 1516.44 297.705 1454.82 286.395 1435.43 C 281.784 1431.69 264.621 1404.16 262.314 1398.95 C 237.386 1342.75 226.529 1280.32 219.896 1219.51 C 218.364 1205.47 214.927 1191.39 214.087 1177.23 C 213.159 1158.48 214.113 1140.12 212.882 1121.42 C 210.531 1091.99 205.378 1051.62 209.813 1022.35 C 209.642 1016.2 210.359 1008.65 211.158 1002.51 C 214.109 979.829 213.015 957.196 214.43 934.455 C 216.033 916.143 218.373 898.024 220.759 879.957 C 225.372 845.027 216.409 841.989 250.627 825.356 C 256.436 817.922 320.403 792.389 332.336 788.222 C 340.851 784.88 349.349 781.496 357.83 778.068 C 375.986 772.373 391.616 767.753 410.139 763.376 z M 723.424 1225.09 C 726.447 1244.7 725.122 1264.83 727.741 1284.5 C 741.442 1387.46 778.218 1485.73 831.996 1574.4 C 838.552 1585.21 846.562 1595.08 852.003 1606.49 C 853.474 1609.58 854.59 1612.62 852.045 1615.64 C 846.258 1622.75 834.904 1629.49 827.113 1634.46 C 778.23 1665.51 725.507 1690.07 670.277 1707.49 C 664.204 1705.57 604.709 1676.33 598.446 1672.07 C 573.7 1658.79 549.957 1645.16 526.255 1630.27 C 487.09 1605.67 482.715 1613.19 496.025 1566.85 C 511.211 1514.16 532.397 1463.39 559.166 1415.54 C 566.607 1402.05 575.824 1387.91 583.716 1374.19 C 601.587 1346.77 639.477 1297.24 662.141 1275.78 C 675.46 1259.85 696.343 1239.53 713.139 1227.16 C 716.524 1224.66 719.448 1224.18 723.424 1225.09 z M 629.532 1751.26 C 658.188 1765.73 685.383 1780.28 715.841 1790.57 C 733.265 1796.45 750.681 1804.94 768.062 1811.19 C 780.033 1814.69 799.829 1821.61 811.411 1826.3 C 832.292 1832.04 849.95 1836.26 871.113 1841.27 C 885.206 1842.78 899.382 1843.39 913.553 1843.1 C 919.119 1843.01 929.418 1842.11 933.824 1842.22 C 960.101 1837.44 974.874 1834.64 1000.23 1826.22 C 1039.14 1811.72 1084.57 1798.12 1122.32 1780.43 C 1287.46 1702.69 1454.04 1606.69 1577.24 1469.58 C 1622.58 1408.94 1628.98 1322.99 1639.89 1251.96 C 1649.98 1186.28 1658.52 1126.11 1658.25 1060.88 C 1657.99 1000.8 1652.14 936.354 1644.62 877.725 C 1637.03 851.7 1638.51 830.923 1635.65 805.381 C 1631.9 771.915 1624.62 737.57 1614.18 705.591 C 1608.66 688.714 1606.48 674.837 1596.98 658.684 C 1582.96 634.825 1567.81 617.85 1548.95 598.025 C 1531.31 579.687 1513.12 564.425 1495.82 546.973 C 1478.47 531.977 1455.16 514.473 1436.85 500.541 C 1310.76 404.907 1169.58 331.025 1019.13 281.953 C 992.101 273.2 955.262 259.561 927.91 257.746 C 896.637 255.671 863.296 258.146 833.156 267.064 C 804.883 275.43 772.191 287.033 744.793 298.179 C 726.929 305.447 707.306 311.67 690.043 318.845 C 660.561 331.098 631.93 346.993 603.715 361.321 C 559.464 383.793 516.925 407.47 475.227 434.479 C 462.796 442.531 432.543 460.407 422.66 469.28 C 404.21 480.239 373.714 505.748 356.193 519.27 C 313.638 552.111 271.446 585.133 238.551 628.138 C 227.24 642.18 217.806 657.636 210.488 674.114 C 191.921 716.474 179.43 783.296 173.171 829.088 C 155.096 961.4 153.269 1095.43 167.73 1228.18 C 173.497 1275.5 181.476 1322.53 191.641 1369.1 C 192.917 1374.29 193.942 1378.5 195.66 1383.57 C 202.531 1405.8 204.646 1418.84 216.675 1439.87 C 234.905 1471.73 255.09 1491.51 281.036 1516.8 C 345.837 1579.98 423.089 1633.38 500.008 1680.85 C 546.433 1710.4 582.555 1726.15 629.532 1751.26 z"/>
<path transform="translate(0,0)" fill="url(#Gradient26)" d="M 1264.64 508.198 C 1273.89 504.772 1285.54 501.732 1295.16 499.678 C 1311.24 496.246 1322.23 490.837 1337.79 498.134 C 1353.73 505.974 1381.63 528.676 1396.27 539.74 C 1410.83 551.386 1426.42 561.949 1440.88 573.675 C 1451.76 582.494 1461.9 593.292 1472.39 602.589 C 1522.9 647.351 1562.32 697.94 1574.15 766.348 C 1581.23 789.251 1587.51 832.728 1590.45 857.068 C 1596.72 875.181 1596.28 903.212 1598.01 922.6 C 1599.36 937.827 1601.63 952.938 1602.4 968.222 C 1603.47 989.693 1605.38 1138.44 1600.54 1149.7 C 1599.93 1151.11 1599.85 1151.09 1599.04 1152.12 C 1590.36 1154.6 1557.55 1130.21 1547.66 1124.58 C 1496.49 1094.91 1442.26 1070.88 1385.91 1052.89 C 1362.21 1046.59 1338.49 1040.56 1314.72 1034.55 C 1292.15 1028.51 1269.5 1029.77 1246.47 1026.6 C 1230.28 1024.36 1210.06 1025.46 1194.42 1020.46 C 1192.15 1019.74 1189.54 1011.61 1189.31 1009.31 C 1186.64 982.719 1186.88 956.72 1182.71 930.187 C 1169.47 849.054 1143.75 770.459 1106.46 697.195 C 1100.92 686.175 1094.96 675.374 1088.59 664.816 C 1083.32 656.224 1076.3 644.753 1070.54 636.719 C 1048.75 606.301 1057.96 604.504 1085.47 587.587 C 1131.95 559.045 1181.43 535.688 1233 517.934 C 1242.05 514.894 1255.5 510.226 1264.64 508.198 z"/>
<path transform="translate(0,0)" fill="rgb(50,60,122)" d="M 1337.79 498.134 C 1353.73 505.974 1381.63 528.676 1396.27 539.74 C 1410.83 551.386 1426.42 561.949 1440.88 573.675 C 1451.76 582.494 1461.9 593.292 1472.39 602.589 C 1522.9 647.351 1562.32 697.94 1574.15 766.348 C 1581.23 789.251 1587.51 832.728 1590.45 857.068 C 1596.72 875.181 1596.28 903.212 1598.01 922.6 C 1599.36 937.827 1601.63 952.938 1602.4 968.222 C 1603.47 989.693 1605.38 1138.44 1600.54 1149.7 C 1599.93 1151.11 1599.85 1151.09 1599.04 1152.12 C 1590.36 1154.6 1557.55 1130.21 1547.66 1124.58 C 1496.49 1094.91 1442.26 1070.88 1385.91 1052.89 C 1392.31 1051.64 1401.23 1055.22 1407.53 1057.05 C 1474.35 1076.47 1536.35 1111.75 1595.37 1148.37 C 1595.2 1130.47 1596.87 1107.74 1597.45 1089.19 C 1598.05 1064.05 1598.26 1038.9 1598.07 1013.76 C 1596.88 1005.99 1596.42 984.663 1596 975.945 C 1596.24 965.561 1593.52 942.641 1592.62 931.137 C 1586.54 861.99 1578.23 786.799 1554.1 721.294 C 1526.19 645.545 1441.79 582.625 1379.34 534.317 C 1368.61 526.015 1345.4 508.007 1333.89 502.917 L 1336.74 501.13 C 1336.96 499.006 1336.63 500.01 1337.79 498.134 z"/>
<path transform="translate(0,0)" fill="rgb(63,86,128)" d="M 1574.15 766.348 C 1581.23 789.251 1587.51 832.728 1590.45 857.068 L 1588.61 857.412 C 1584.47 851.044 1582.39 826.842 1580.69 818.176 C 1577.62 802.522 1574.34 786.286 1572.05 770.486 C 1572.05 770.486 1573.96 766.733 1574.15 766.348 z"/>
<path transform="translate(0,0)" fill="rgb(47,63,104)" d="M 1596 975.945 L 1597.49 977.26 C 1601.62 970.37 1594.91 943.424 1597.17 936.077 L 1598.13 936.664 C 1597.97 942.727 1601.57 964.448 1601.19 966.521 C 1599.64 974.999 1602.46 1020.71 1600.42 1024.9 C 1600.29 1020.61 1600.79 1017.44 1598.35 1014.15 L 1598.07 1013.76 C 1596.88 1005.99 1596.42 984.663 1596 975.945 z"/>
<path transform="translate(0,0)" fill="url(#Gradient25)" d="M 1264.64 508.198 C 1273.89 504.772 1285.54 501.732 1295.16 499.678 C 1311.24 496.246 1322.23 490.837 1337.79 498.134 C 1336.63 500.01 1336.96 499.006 1336.74 501.13 L 1333.89 502.917 C 1329.05 503.044 1318.58 503.156 1314.05 503.934 L 1305.31 504.392 C 1302.36 505.349 1291.47 507.428 1288.49 507.564 C 1283.98 507.364 1282.55 507.634 1278.07 508.399 C 1274.76 508.018 1268.23 508.226 1264.64 508.198 z"/>
<path transform="translate(0,0)" fill="rgb(47,63,104)" d="M 1305.31 504.392 C 1307.7 501.533 1311.34 501.354 1314.94 502.159 L 1315.39 502.751 L 1314.05 503.934 L 1305.31 504.392 z"/>
<path transform="translate(0,0)" fill="rgb(47,63,104)" d="M 1278.07 508.399 C 1282.55 507.634 1283.98 507.364 1288.49 507.564 C 1242.39 520.5 1197.43 534.45 1154.88 556.618 C 1149.97 559.179 1126.68 571.387 1123.1 572.116 C 1152.66 550.598 1239.98 516.479 1278.07 508.399 z"/>
<path transform="translate(0,0)" fill="url(#Gradient24)" d="M 880.714 1118.31 C 884.443 1115.52 907.547 1106.59 913.454 1104.25 C 982.833 1076.46 1056.16 1059.78 1130.73 1054.81 C 1139.04 1054.29 1149.78 1052.69 1155.67 1057.89 C 1159.53 1066.61 1154.74 1105.4 1153.27 1116.4 C 1152.8 1123.46 1151.56 1140.46 1148.61 1146.9 C 1147.34 1153.89 1145.22 1173.84 1144.05 1178.4 C 1138.24 1201.16 1128.65 1243.95 1119.84 1263.9 C 1108.1 1296.67 1096.98 1326.14 1080.03 1356.68 C 1075.88 1364.18 1070.32 1376.41 1065.43 1383.01 C 1063.87 1388.34 1050.51 1409 1046.85 1414.8 C 1011.15 1471.94 967.241 1523.5 916.52 1567.84 C 909.662 1573.94 896.518 1586.47 888.841 1589.32 C 877.912 1588.7 857.625 1550.72 851.348 1540.21 C 803.449 1459.74 772.542 1370.31 760.533 1277.44 C 758.332 1259.82 757.145 1238.05 755.767 1220.07 C 755.177 1215.17 753.91 1206.04 754.463 1201.53 C 756.075 1188.38 778.928 1176.64 790.669 1169.24 C 809.737 1155.27 859.988 1127.93 880.714 1118.31 z"/>
<path transform="translate(0,0)" fill="rgb(78,107,151)" d="M 880.714 1118.31 C 884.443 1115.52 907.547 1106.59 913.454 1104.25 C 982.833 1076.46 1056.16 1059.78 1130.73 1054.81 C 1139.04 1054.29 1149.78 1052.69 1155.67 1057.89 L 1152.07 1059.66 C 1148.61 1059.8 1146.1 1059 1144 1062.02 C 1139.86 1063.32 1132.72 1063.85 1128.34 1064.09 C 1104.14 1065.39 1082.47 1068.5 1058.65 1072.42 C 1051.08 1073.67 1027.89 1078.4 1021.8 1078.69 C 1006.05 1070.07 905.975 1111.5 885.557 1120.11 C 881.714 1121.73 878.683 1124.05 873.849 1124.86 C 877.019 1120.68 879.086 1122.66 880.714 1118.31 z"/>
<path transform="translate(0,0)" fill="rgb(63,86,128)" d="M 1148.11 1109.41 L 1150.13 1104.45 L 1150.86 1104.61 C 1150.54 1108.87 1150.23 1112.28 1150.34 1116.58 L 1151.49 1117.87 C 1152.55 1115.32 1152.31 1109.97 1152.39 1106.89 C 1153.43 1109.86 1153.18 1113.12 1153.27 1116.4 C 1152.8 1123.46 1151.56 1140.46 1148.61 1146.9 C 1147.34 1153.89 1145.22 1173.84 1144.05 1178.4 C 1138.24 1201.16 1128.65 1243.95 1119.84 1263.9 C 1108.1 1296.67 1096.98 1326.14 1080.03 1356.68 C 1075.88 1364.18 1070.32 1376.41 1065.43 1383.01 C 1066.23 1376.39 1078.16 1355.4 1082.02 1346.86 L 1081.41 1345.63 C 1078.77 1347.35 1078.63 1351.19 1074.78 1354.61 C 1074.39 1351.92 1081.78 1339.23 1083.72 1335.38 C 1090.24 1322.29 1096.21 1308.92 1101.61 1295.33 C 1119.78 1249.98 1133.34 1202.92 1142.09 1154.86 C 1144.56 1141.37 1147.74 1123.08 1148.11 1109.41 z"/>
<path transform="translate(0,0)" fill="rgb(79,110,143)" d="M 1116.64 1260.8 C 1127.6 1226.02 1138.37 1192.28 1143.48 1156.16 C 1144.13 1151.54 1144.76 1149.33 1148.61 1146.9 C 1147.34 1153.89 1145.22 1173.84 1144.05 1178.4 C 1138.24 1201.16 1128.65 1243.95 1119.84 1263.9 C 1118.64 1261.92 1118.64 1262.33 1116.64 1260.8 z"/>
<path transform="translate(0,0)" fill="rgb(79,110,143)" d="M 1116.64 1260.8 C 1118.64 1262.33 1118.64 1261.92 1119.84 1263.9 C 1108.1 1296.67 1096.98 1326.14 1080.03 1356.68 C 1075.88 1364.18 1070.32 1376.41 1065.43 1383.01 C 1066.23 1376.39 1078.16 1355.4 1082.02 1346.86 L 1081.41 1345.63 C 1082.23 1342.66 1085.49 1336.16 1086.98 1333.17 C 1098.81 1309.57 1107.25 1285.39 1116.64 1260.8 z"/>
<path transform="translate(0,0)" fill="rgb(79,110,143)" d="M 880.714 1118.31 C 879.086 1122.66 877.019 1120.68 873.849 1124.86 C 878.683 1124.05 881.714 1121.73 885.557 1120.11 C 905.975 1111.5 1006.05 1070.07 1021.8 1078.69 C 951.345 1090.39 880.505 1120.97 820.039 1158 C 800.808 1169.77 784.766 1177.63 767.406 1192.8 C 758.791 1202.6 757.76 1207.36 755.767 1220.07 C 755.177 1215.17 753.91 1206.04 754.463 1201.53 C 756.075 1188.38 778.928 1176.64 790.669 1169.24 C 809.737 1155.27 859.988 1127.93 880.714 1118.31 z"/>
<path transform="translate(0,0)" fill="rgb(88,124,146)" d="M 755.767 1220.07 C 755.177 1215.17 753.91 1206.04 754.463 1201.53 C 756.075 1188.38 778.928 1176.64 790.669 1169.24 L 791.476 1171.66 C 784.548 1178.95 769.95 1183.73 767.406 1192.8 C 758.791 1202.6 757.76 1207.36 755.767 1220.07 z"/>
<path transform="translate(0,0)" fill="rgb(78,107,151)" d="M 1152.07 1059.66 L 1155.67 1057.89 C 1159.53 1066.61 1154.74 1105.4 1153.27 1116.4 C 1153.18 1113.12 1153.43 1109.86 1152.39 1106.89 C 1152.31 1109.97 1152.55 1115.32 1151.49 1117.87 L 1150.34 1116.58 C 1150.23 1112.28 1150.54 1108.87 1150.86 1104.61 L 1150.13 1104.45 L 1148.11 1109.41 C 1148.47 1103.59 1148.79 1097.76 1149.05 1091.93 L 1149.87 1091.75 C 1152.55 1088.93 1151.98 1065.23 1152.07 1059.66 z"/>
<path transform="translate(0,0)" fill="rgb(63,86,128)" d="M 1144 1062.02 C 1146.1 1059 1148.61 1059.8 1152.07 1059.66 C 1151.98 1065.23 1152.55 1088.93 1149.87 1091.75 L 1149.05 1091.93 C 1149.51 1085.24 1151.52 1068.73 1148.64 1062.96 C 1148.13 1061.94 1145.56 1062.14 1144 1062.02 z"/>
<path transform="translate(0,0)" fill="url(#Gradient23)" d="M 1236.66 1111.07 C 1230.53 1099.49 1208.81 1065.09 1209.73 1055.08 C 1213.43 1052.1 1226.65 1054.5 1231.98 1055.01 C 1295.21 1061.07 1356.27 1076.45 1415.84 1098.35 C 1430.03 1103.56 1447.71 1109.26 1461.24 1115.62 C 1471.93 1119.8 1532.19 1150.7 1537.16 1157.46 C 1551.42 1165.11 1560.86 1172.57 1573.92 1181.16 C 1580.18 1185.04 1593.81 1193.06 1595.1 1200.36 C 1597.74 1215.42 1593.07 1234.95 1590.65 1249.85 C 1581.84 1304.19 1569.96 1372.33 1539.85 1419.47 C 1535.06 1426.97 1529.61 1434.02 1523.58 1440.56 C 1506.63 1461.61 1500.89 1469.42 1479.81 1487.43 C 1466.03 1499.82 1432.58 1531.95 1418.11 1540.62 C 1414.52 1545.68 1385.21 1565.73 1378.88 1570.63 C 1362.58 1583.26 1343.57 1595.07 1326.28 1606.55 C 1320.62 1610.31 1305.32 1622.85 1299.15 1618.7 C 1299.09 1613.51 1301.6 1602.59 1302.46 1596.81 C 1305.48 1576.69 1309.9 1556.66 1312.3 1536.44 C 1312.96 1509.24 1315.99 1482.4 1316.44 1455.05 C 1318 1358.77 1301.55 1263.56 1264.81 1174.41 C 1255.87 1152.71 1245.92 1132.44 1236.66 1111.07 z"/>
<path transform="translate(0,0)" fill="rgb(50,60,122)" d="M 1591.33 1204.44 C 1581.34 1191.94 1562.92 1181.8 1549.95 1172.85 C 1494.06 1134.27 1438.7 1109.85 1373.53 1091.15 C 1363.89 1088.39 1333.12 1079.34 1323.67 1078.02 L 1322.32 1077.84 L 1323.57 1075.81 C 1329.83 1076.18 1343.11 1080.26 1349.74 1082.12 C 1386.76 1092.51 1424.36 1105 1459.85 1119.86 C 1463.32 1121.31 1466.32 1123.09 1469.57 1121.84 L 1468.9 1120.06 C 1464.73 1118.8 1464.6 1118.56 1461.24 1115.62 C 1471.93 1119.8 1532.19 1150.7 1537.16 1157.46 C 1551.42 1165.11 1560.86 1172.57 1573.92 1181.16 C 1580.18 1185.04 1593.81 1193.06 1595.1 1200.36 C 1597.74 1215.42 1593.07 1234.95 1590.65 1249.85 C 1581.84 1304.19 1569.96 1372.33 1539.85 1419.47 C 1535.06 1426.97 1529.61 1434.02 1523.58 1440.56 C 1523.48 1438.47 1524.56 1437.77 1524.56 1434.85 C 1520.56 1436.24 1503.89 1461.05 1494.97 1468.83 L 1494.14 1468.49 C 1495.54 1463.78 1533.01 1421.95 1540.09 1407.76 C 1564.3 1359.26 1574.84 1311.2 1583.24 1257.94 C 1586.02 1240.3 1590.97 1222.75 1591.33 1204.44 z"/>
<path transform="translate(0,0)" fill="rgb(63,86,128)" d="M 1537.16 1157.46 C 1551.42 1165.11 1560.86 1172.57 1573.92 1181.16 C 1563.17 1182.68 1546.69 1169.7 1539.99 1161.54 C 1539.73 1161.22 1538.65 1159.36 1538.11 1158.67 L 1537.16 1157.46 z"/>
<path transform="translate(0,0)" fill="rgb(63,86,128)" d="M 1236.66 1111.07 C 1245.56 1115.88 1282.49 1206.9 1286.9 1223.76 C 1296.16 1259.08 1307.6 1297.35 1311.49 1334.02 C 1313.36 1348.47 1316.51 1360.1 1317.18 1375.44 C 1318.65 1409.48 1317.73 1444.32 1318.05 1478.35 C 1318.19 1493.4 1318.31 1537.98 1314.18 1551.05 C 1311.68 1547.83 1315.59 1537.27 1312.3 1536.44 C 1312.96 1509.24 1315.99 1482.4 1316.44 1455.05 C 1318 1358.77 1301.55 1263.56 1264.81 1174.41 C 1255.87 1152.71 1245.92 1132.44 1236.66 1111.07 z"/>
<path transform="translate(0,0)" fill="rgb(78,107,151)" d="M 1418.11 1540.62 C 1418.55 1538.58 1418.21 1537.83 1420.1 1536.25 C 1438.62 1520.72 1455.59 1501.67 1474.99 1487.53 C 1476.98 1487.49 1478.59 1487.45 1479.81 1487.43 C 1466.03 1499.82 1432.58 1531.95 1418.11 1540.62 z"/>
<path transform="translate(0,0)" fill="url(#Gradient22)" d="M 1186.08 1111.15 C 1186.03 1107.07 1185.74 1105.93 1187.22 1102.27 L 1188.98 1100.95 C 1198.5 1103.01 1204.16 1121.02 1208.73 1128.95 C 1211.05 1132.98 1215.13 1141.4 1216.52 1145.82 C 1227.12 1164.95 1235.85 1188.76 1243.44 1209.41 C 1287.81 1328.26 1297.72 1457.22 1272.02 1581.45 C 1270.77 1600.42 1260.22 1629.62 1255.05 1648.66 C 1247.17 1655.2 1234.72 1661.19 1225.46 1666.46 C 1179.46 1692.75 1131.72 1715.87 1082.58 1735.66 C 1069.45 1740.85 1055.75 1746.89 1042.25 1750.61 C 1019.27 1739.12 915.329 1642.4 908.997 1622.63 C 909.759 1616.08 927.943 1603.17 934.122 1597.84 C 1054.98 1493.25 1138.7 1352.32 1172.73 1196.16 C 1180.54 1159.81 1183.31 1148.63 1186.08 1111.15 z"/>
<path transform="translate(0,0)" fill="rgb(78,107,151)" d="M 1229.18 1185.05 C 1225.31 1174.36 1217.68 1157.56 1214.66 1147.61 L 1216.52 1145.82 C 1227.12 1164.95 1235.85 1188.76 1243.44 1209.41 C 1287.81 1328.26 1297.72 1457.22 1272.02 1581.45 C 1271.62 1578.54 1271.67 1574.82 1271.63 1571.82 C 1270.77 1573.34 1269.88 1574.86 1268.98 1576.37 C 1296.33 1440.6 1279.34 1313.4 1229.18 1185.05 z"/>
<path transform="translate(0,0)" fill="rgb(47,63,104)" d="M 1229.18 1185.05 C 1279.34 1313.4 1296.33 1440.6 1268.98 1576.37 C 1268.09 1577.86 1266.11 1588.83 1265.62 1591.36 C 1263.8 1600.75 1255.41 1637.14 1249.77 1642.31 L 1249.14 1641.79 C 1249.42 1641.21 1249.69 1640.62 1249.95 1640.03 C 1259.13 1619.11 1262.67 1595.84 1267.33 1573.57 C 1295.12 1440.9 1275.58 1311.31 1227.61 1186.07 L 1229.18 1185.05 z"/>
<path transform="translate(0,0)" fill="url(#Gradient21)" d="M 1186.08 1111.15 C 1186.03 1107.07 1185.74 1105.93 1187.22 1102.27 L 1188.98 1100.95 C 1198.5 1103.01 1204.16 1121.02 1208.73 1128.95 C 1211.05 1132.98 1215.13 1141.4 1216.52 1145.82 L 1214.66 1147.61 C 1217.68 1157.56 1225.31 1174.36 1229.18 1185.05 L 1227.61 1186.07 C 1220.04 1170.5 1201.11 1117.01 1186.08 1111.15 z"/>
<path transform="translate(0,0)" fill="rgb(78,107,151)" d="M 993.964 1542.73 L 994.87 1543.65 C 993.813 1547.01 975.432 1565.44 971.751 1569.29 L 970.561 1568.51 L 970.41 1567.35 C 974.825 1561.52 988.196 1548.7 993.964 1542.73 z"/>
<path transform="translate(0,0)" fill="url(#Gradient20)" d="M 851.175 320.248 C 874.303 314.881 916.796 314.13 940.651 318.531 C 1001.4 325.128 1072.78 354.813 1127.84 380.413 C 1171.85 400.472 1214.93 422.503 1256.96 446.44 C 1262.89 449.808 1286.82 461.56 1286.66 467.821 C 1278.17 475.985 1244.97 481.374 1232.13 485.752 C 1160.04 510.317 1098.55 542.495 1034.45 583.205 C 1021.64 572.211 1011.84 559.409 1000.38 547.17 C 989.005 535.028 976.887 523.044 965.081 511.294 C 924.856 470.581 879.711 435.044 830.691 405.503 C 814.443 395.922 793.129 385.454 776.048 376.422 C 766.238 371.687 756.551 367.244 747.249 361.56 C 744.375 358.182 743.19 357.098 745.088 352.895 C 749.573 349.98 756.98 348.769 762.441 347.163 C 782.942 338.26 827.948 326.689 851.175 320.248 z"/>
<path transform="translate(0,0)" fill="rgb(47,63,104)" d="M 940.651 318.531 C 1001.4 325.128 1072.78 354.813 1127.84 380.413 C 1171.85 400.472 1214.93 422.503 1256.96 446.44 C 1262.89 449.808 1286.82 461.56 1286.66 467.821 C 1278.17 475.985 1244.97 481.374 1232.13 485.752 C 1160.04 510.317 1098.55 542.495 1034.45 583.205 C 1021.64 572.211 1011.84 559.409 1000.38 547.17 C 989.005 535.028 976.887 523.044 965.081 511.294 C 924.856 470.581 879.711 435.044 830.691 405.503 C 814.443 395.922 793.129 385.454 776.048 376.422 C 774.127 373.425 772.169 370.452 770.177 367.502 C 789.106 378.825 812.535 388.86 832.602 401.033 C 866.063 421.009 897.014 444.195 927.198 469.059 C 965.217 500.377 997.033 542.045 1035.14 572.907 C 1039.06 576.075 1062.96 559.038 1068.14 555.909 C 1113.71 528.647 1161.79 505.8 1211.7 487.678 C 1221.81 484.104 1270.71 471.419 1274.27 464.783 C 1272.78 460.871 1253.67 451.378 1249.32 449.017 C 1163.9 402.709 1076.05 356.843 981.546 332.182 C 975.66 330.646 969.829 330.053 963.98 328.492 L 963.202 328.279 C 960.526 322.997 948.152 323.495 939.711 319.609 L 940.651 318.531 z"/>
<path transform="translate(0,0)" fill="url(#Gradient19)" d="M 851.175 320.248 C 874.303 314.881 916.796 314.13 940.651 318.531 L 939.711 319.609 C 948.152 323.495 960.526 322.997 963.202 328.279 C 953.939 327.343 944.249 324.766 934.342 324.047 C 906.331 322.013 877.505 322.652 849.933 327.786 C 849.422 326.494 849.15 326.549 848.024 325.454 C 848.867 324.47 851.588 323.351 853.244 321.595 L 851.175 320.248 z"/>
<path transform="translate(0,0)" fill="rgb(47,63,104)" d="M 762.441 347.163 C 782.942 338.26 827.948 326.689 851.175 320.248 L 853.244 321.595 C 851.588 323.351 848.867 324.47 848.024 325.454 C 849.15 326.549 849.422 326.494 849.933 327.786 C 827.765 332.531 804.178 339.903 782.336 346.422 C 773.477 349.066 762.107 356.016 753.255 358.143 L 747.444 357.193 L 747.249 361.56 C 744.375 358.182 743.19 357.098 745.088 352.895 C 749.573 349.98 756.98 348.769 762.441 347.163 z"/>
<path transform="translate(0,0)" fill="rgb(88,124,146)" d="M 762.441 347.163 C 782.942 338.26 827.948 326.689 851.175 320.248 L 853.244 321.595 C 851.588 323.351 848.867 324.47 848.024 325.454 C 827.603 330.656 788.789 341.293 769.456 348.256 L 762.441 347.163 z"/>
<path transform="translate(0,0)" fill="rgb(79,110,143)" d="M 747.249 361.56 C 744.375 358.182 743.19 357.098 745.088 352.895 C 749.573 349.98 756.98 348.769 762.441 347.163 L 769.456 348.256 C 763.506 351.135 757.29 354.536 750.907 356.196 C 750.32 356.348 747.796 356.998 747.444 357.193 L 747.249 361.56 z"/>
<path transform="translate(0,0)" fill="url(#Gradient18)" d="M 747.444 357.193 L 753.255 358.143 C 756.376 362.401 764.936 364.569 770.177 367.502 C 772.169 370.452 774.127 373.425 776.048 376.422 C 766.238 371.687 756.551 367.244 747.249 361.56 L 747.444 357.193 z"/>
<path transform="translate(0,0)" fill="url(#Gradient17)" d="M 866.05 806.598 C 876.184 807.546 899.183 820.868 908.754 826.037 C 985.195 867.315 1059.87 924.977 1116.74 990.777 C 1121.36 996.121 1138.02 1015.52 1137.93 1020.78 C 1136.4 1022.99 1085.9 1028.25 1079.66 1027.79 C 1074.48 1028.57 1055.4 1031.79 1051.14 1031.92 C 1047.87 1032.75 1044.66 1033.81 1041.35 1033.95 C 1035.21 1035.25 1027.21 1037.19 1021.18 1038.18 C 951.778 1052.1 884.223 1077.23 822.2 1110.7 C 805.675 1119.62 790.477 1131.83 773.329 1139.68 C 768.369 1143.3 765.256 1146.66 759.329 1145.97 C 755.014 1140.93 758.535 1112.49 759.368 1104.61 C 768.55 1017.67 796.662 933.924 836.83 856.518 C 845.494 839.822 856.346 822.846 866.05 806.598 z"/>
<path transform="translate(0,0)" fill="rgb(63,86,128)" d="M 866.05 806.598 C 876.184 807.546 899.183 820.868 908.754 826.037 C 985.195 867.315 1059.87 924.977 1116.74 990.777 C 1121.36 996.121 1138.02 1015.52 1137.93 1020.78 C 1136.4 1022.99 1085.9 1028.25 1079.66 1027.79 C 1076.95 1027.03 1073.27 1025.44 1070.58 1024.37 C 1073.78 1022.13 1127.69 1021.53 1135.69 1021.49 C 1117.86 1006.04 1103.75 983.957 1087.23 967.27 C 1046.29 925.894 997.134 885.792 947.538 855.697 C 936.39 848.834 925.103 842.196 913.686 835.789 C 899.817 828.173 876.87 817.315 866.05 806.598 z"/>
<path transform="translate(0,0)" fill="rgb(75,111,126)" d="M 773.329 1139.68 C 777.741 1132.34 816 1108.99 825.689 1104.09 C 874.594 1079.4 927.109 1057.62 980.577 1045.12 C 991.22 1042.63 1011.38 1035.23 1021.18 1038.18 C 951.778 1052.1 884.223 1077.23 822.2 1110.7 C 805.675 1119.62 790.477 1131.83 773.329 1139.68 z"/>
<path transform="translate(0,0)" fill="rgb(63,86,128)" d="M 1041.35 1033.95 C 1037.29 1033.3 1034.93 1033.7 1030.54 1032.59 C 1035.35 1029.92 1046.24 1028.98 1051.14 1031.92 C 1047.87 1032.75 1044.66 1033.81 1041.35 1033.95 z"/>
<path transform="translate(0,0)" fill="url(#Gradient16)" d="M 1025.31 631.509 C 1035.78 641.218 1045.12 657.76 1052.76 670.102 C 1061.33 682.971 1070.53 700.378 1078.1 714.242 L 1087.7 733.764 C 1093.16 745.333 1102.3 763.66 1105.93 775.146 C 1109.61 785.059 1112.92 794.086 1116.05 804.199 C 1132.19 846.038 1155.1 936.571 1153.35 980.18 C 1145.45 974.71 1125.56 951.326 1118.27 943.412 C 1106.11 930.353 1093.56 917.657 1080.64 905.341 C 1067.21 895.851 1054.61 883.963 1041.98 874.58 C 1012.92 852.99 972.375 820.301 940.746 803.657 C 931.097 798.801 921.246 794.003 911.861 788.678 C 906.336 786.181 895.771 781.667 892.461 776.894 C 891.282 775.194 890.931 772.92 891.611 771.502 C 907.307 738.796 998.102 646.558 1025.31 631.509 z"/>
<path transform="translate(0,0)" fill="rgb(78,107,151)" d="M 1025.31 631.509 C 1035.78 641.218 1045.12 657.76 1052.76 670.102 C 1051.2 678.803 1056.69 685.022 1061.67 692.99 L 1059.68 694.476 C 1047.17 672.628 1039.46 658.263 1024.25 637.986 C 1008.57 652.075 991.63 665.432 976.327 679.566 C 956.398 697.971 937.934 720.337 920.282 740.924 C 912.882 749.554 899.712 763.921 896.158 774.077 L 895.218 775.947 C 898.351 778.895 907.976 784.518 912.072 786.886 L 911.861 788.678 C 906.336 786.181 895.771 781.667 892.461 776.894 C 891.282 775.194 890.931 772.92 891.611 771.502 C 907.307 738.796 998.102 646.558 1025.31 631.509 z"/>
<path transform="translate(0,0)" fill="rgb(47,63,104)" d="M 939.148 799.489 C 982.419 821.551 1029.69 858.621 1067.24 889.63 C 1076.07 896.919 1087.02 905.379 1095.08 913.146 L 1094.47 913.732 C 1087.07 911.665 1089.77 906.309 1080.64 905.341 C 1067.21 895.851 1054.61 883.963 1041.98 874.58 C 1012.92 852.99 972.375 820.301 940.746 803.657 C 940.553 801.877 939.982 801.241 939.148 799.489 z"/>
<path transform="translate(0,0)" fill="rgb(63,86,128)" d="M 1087.7 733.764 C 1093.16 745.333 1102.3 763.66 1105.93 775.146 C 1109.61 785.059 1112.92 794.086 1116.05 804.199 L 1113.71 803.583 C 1111.61 808.708 1122.25 828.673 1122.5 838.798 C 1114.6 811.85 1098.17 772.893 1087.01 746.897 L 1087.85 744.462 C 1088.71 741.52 1087.65 737.843 1087.7 733.764 z"/>
<path transform="translate(0,0)" fill="rgb(79,110,143)" d="M 1087.7 733.764 C 1093.16 745.333 1102.3 763.66 1105.93 775.146 L 1104.61 776.981 L 1103.08 776.792 C 1099.22 771.434 1092.95 753.936 1088.55 745.762 L 1087.85 744.462 C 1088.71 741.52 1087.65 737.843 1087.7 733.764 z"/>
<path transform="translate(0,0)" fill="url(#Gradient15)" d="M 1052.76 670.102 C 1061.33 682.971 1070.53 700.378 1078.1 714.242 L 1087.7 733.764 C 1087.65 737.843 1088.71 741.52 1087.85 744.462 L 1087.01 746.897 C 1078.47 729.13 1069.36 711.647 1059.68 694.476 L 1061.67 692.99 C 1056.69 685.022 1051.2 678.803 1052.76 670.102 z"/>
<path transform="translate(0,0)" fill="rgb(79,110,143)" d="M 1052.76 670.102 C 1061.33 682.971 1070.53 700.378 1078.1 714.242 L 1075.2 712.684 L 1074.3 712.984 C 1075.4 715.492 1076.91 718.159 1076.88 720.788 L 1075.86 720.471 C 1075.41 717.712 1063.73 696.846 1061.67 692.99 C 1056.69 685.022 1051.2 678.803 1052.76 670.102 z"/>
<path transform="translate(0,0)" fill="rgb(88,124,146)" d="M 896.158 774.077 C 902.381 777.674 937.172 796.284 939.148 799.489 C 939.982 801.241 940.553 801.877 940.746 803.657 C 931.097 798.801 921.246 794.003 911.861 788.678 L 912.072 786.886 C 907.976 784.518 898.351 778.895 895.218 775.947 L 896.158 774.077 z"/>
<path transform="translate(0,0)" fill="rgb(98,140,156)" d="M 874.579 1644.93 C 884.219 1644.58 892.094 1657.4 898.431 1664.6 C 916.372 1685.09 935.366 1704.64 955.336 1723.17 C 967.424 1734.42 981.591 1746.13 992.884 1758.21 C 995.068 1760.54 995.473 1763.09 995.161 1766.07 C 990.618 1771.31 977.489 1772.25 970.708 1773.79 C 930.065 1783 888.664 1781.69 847.845 1774.08 C 828.048 1768.98 731.756 1741.01 720.844 1729.94 C 719.476 1728.55 719.897 1728.42 719.963 1726.63 C 723.633 1722.35 760.705 1707.19 769.11 1703.87 C 807.619 1688.66 838.919 1664.38 874.579 1644.93 z"/>
<path transform="translate(0,0)" fill="url(#Gradient14)" d="M 528.923 744.885 C 540.255 743.38 630.141 742.748 638.638 745.793 C 659.255 746.649 690.486 750.827 711.204 754.527 C 728.956 757.697 819.201 780.852 828.268 790.704 C 829.582 792.132 830.363 794.036 830.992 795.843 L 830.027 797.154 C 824.193 810.939 815.94 824.294 808.827 837.525 C 799.304 855.224 790.618 873.36 782.798 891.875 C 766.644 930.077 752.129 969.465 742.67 1009.85 C 741.119 1016.47 739.762 1023.89 737.652 1030.3 C 734.009 1048.22 729.033 1075.75 727.132 1093.67 C 726.846 1098.49 725.01 1133.26 724.304 1135.86 C 723.611 1153.48 723.996 1174.26 709.763 1186.05 C 702.269 1192.26 691.46 1201.27 683.416 1206.6 C 677.303 1214.07 668.647 1220.88 662.2 1227.68 C 648.053 1242.61 619.089 1269.65 608.121 1285.62 C 565.525 1326.79 503.719 1442.73 483.299 1498.23 C 477.576 1514.11 472.227 1530.12 467.257 1546.24 C 464.058 1556.75 459.663 1573.98 454.945 1583.44 C 445.464 1578.43 388.37 1536.31 380.814 1528.75 C 362.093 1516.44 297.705 1454.82 286.395 1435.43 C 281.784 1431.69 264.621 1404.16 262.314 1398.95 C 237.386 1342.75 226.529 1280.32 219.896 1219.51 C 218.364 1205.47 214.927 1191.39 214.087 1177.23 C 213.159 1158.48 214.113 1140.12 212.882 1121.42 C 210.531 1091.99 205.378 1051.62 209.813 1022.35 C 209.642 1016.2 210.359 1008.65 211.158 1002.51 C 214.109 979.829 213.015 957.196 214.43 934.455 C 216.033 916.143 218.373 898.024 220.759 879.957 C 225.372 845.027 216.409 841.989 250.627 825.356 C 256.436 817.922 320.403 792.389 332.336 788.222 C 340.851 784.88 349.349 781.496 357.83 778.068 C 375.986 772.373 391.616 767.753 410.139 763.376 C 415.824 760.967 457.099 753.307 463.638 752.654 C 476.301 748.648 515.334 745.031 528.923 744.885 z"/>
<path transform="translate(0,0)" fill="rgb(101,143,135)" d="M 250.627 825.356 C 256.436 817.922 320.403 792.389 332.336 788.222 L 332.982 792.831 C 310.714 801.533 270.226 817.263 250.961 829.186 L 251.02 831.708 C 242.842 837.24 238.337 839.866 231.728 847.29 C 220.434 934.354 216.275 1022.2 219.292 1109.94 C 222.128 1199.81 235.799 1359.61 290.964 1431.94 C 293.496 1435.24 296.101 1438.48 298.779 1441.66 C 291.288 1441.3 294.166 1440.24 287.925 1436.36 L 286.395 1435.43 C 281.784 1431.69 264.621 1404.16 262.314 1398.95 C 237.386 1342.75 226.529 1280.32 219.896 1219.51 C 218.364 1205.47 214.927 1191.39 214.087 1177.23 C 213.159 1158.48 214.113 1140.12 212.882 1121.42 C 210.531 1091.99 205.378 1051.62 209.813 1022.35 C 209.642 1016.2 210.359 1008.65 211.158 1002.51 C 214.109 979.829 213.015 957.196 214.43 934.455 C 216.033 916.143 218.373 898.024 220.759 879.957 C 225.372 845.027 216.409 841.989 250.627 825.356 z"/>
<path transform="translate(0,0)" fill="rgb(108,156,136)" d="M 250.627 825.356 C 256.436 817.922 320.403 792.389 332.336 788.222 L 332.982 792.831 C 310.714 801.533 270.226 817.263 250.961 829.186 L 247.001 830.619 L 246.033 831.439 C 240.938 835.688 234.22 837.972 230.494 843.748 C 225.619 851.306 220.812 908.207 219.576 920.636 C 218.902 927.715 218.286 934.799 217.73 941.888 C 217.832 956.001 216.133 1012.64 209.813 1022.35 C 209.642 1016.2 210.359 1008.65 211.158 1002.51 C 214.109 979.829 213.015 957.196 214.43 934.455 C 216.033 916.143 218.373 898.024 220.759 879.957 C 225.372 845.027 216.409 841.989 250.627 825.356 z"/>
<path transform="translate(0,0)" fill="rgb(75,111,126)" d="M 528.923 744.885 C 540.255 743.38 630.141 742.748 638.638 745.793 C 659.255 746.649 690.486 750.827 711.204 754.527 C 728.956 757.697 819.201 780.852 828.268 790.704 C 829.582 792.132 830.363 794.036 830.992 795.843 L 830.027 797.154 C 787.137 780.781 747.675 768.816 702.183 760.63 C 690.053 758.249 677.007 758.392 664.941 756.378 C 580.723 742.324 500.674 752.29 417.006 768.332 L 416.099 766.078 C 412.604 766.893 408.837 767.884 405.321 768.426 C 407.207 766.467 408.041 766.321 410.525 765.315 L 411.367 764.98 L 410.139 763.376 C 415.824 760.967 457.099 753.307 463.638 752.654 C 476.301 748.648 515.334 745.031 528.923 744.885 z"/>
<path transform="translate(0,0)" fill="rgb(88,124,146)" d="M 638.638 745.793 C 659.255 746.649 690.486 750.827 711.204 754.527 C 728.956 757.697 819.201 780.852 828.268 790.704 C 829.582 792.132 830.363 794.036 830.992 795.843 C 823.013 793.551 812.123 787.246 803.359 784.309 C 769.928 773.106 737.795 762.303 702.928 756.923 C 690.003 754.928 646.267 751.324 638.638 745.793 z"/>
<path transform="translate(0,0)" fill="rgb(98,140,156)" d="M 463.638 752.654 C 476.301 748.648 515.334 745.031 528.923 744.885 C 531.116 745.015 542.212 745.473 543.141 746.188 C 535.525 746.187 528.977 745.906 521.605 747.661 C 515.114 749.207 476.135 756.354 473.012 754.764 L 473.09 753.747 C 465.814 753.744 466.079 758.038 455.926 758.477 C 459.353 755.487 461.21 756.839 463.638 752.654 z"/>
<path transform="translate(0,0)" fill="rgb(98,140,156)" d="M 410.139 763.376 C 415.824 760.967 457.099 753.307 463.638 752.654 C 461.21 756.839 459.353 755.487 455.926 758.477 C 449.363 761.256 426.022 763.152 416.099 766.078 C 412.604 766.893 408.837 767.884 405.321 768.426 C 407.207 766.467 408.041 766.321 410.525 765.315 L 411.367 764.98 L 410.139 763.376 z"/>
<path transform="translate(0,0)" fill="rgb(79,110,143)" d="M 722.034 1099.26 C 721.968 1092.82 722.733 1087.19 723.555 1080.86 C 732.428 1012.47 751.853 946.76 780.425 884.058 C 792.642 857.249 804.848 830.107 820.733 805.371 L 820.42 806.368 C 815.914 819.986 806.152 835.367 799.458 848.588 C 790.603 866.506 782.412 884.744 774.899 903.264 C 767.787 920.383 731.284 1014.87 737.652 1030.3 C 734.009 1048.22 729.033 1075.75 727.132 1093.67 C 725.637 1095.57 725.793 1095.52 723.634 1096.57 L 722.034 1099.26 z"/>
<path transform="translate(0,0)" fill="rgb(75,111,126)" d="M 718.911 1135.7 L 719.638 1137.06 L 720.992 1137.34 L 721.472 1139.74 L 722.434 1136.2 C 723.957 1135.7 723.325 1135.66 724.304 1135.86 C 723.611 1153.48 723.996 1174.26 709.763 1186.05 C 702.269 1192.26 691.46 1201.27 683.416 1206.6 C 683.129 1206.26 683.398 1206.48 682.084 1206.1 C 652.465 1229.16 627.432 1259.11 602.576 1287.11 C 594.179 1296.56 586.443 1308.64 577.618 1317.45 L 577.628 1316.36 L 579.439 1315.59 L 577.771 1316.09 C 594.449 1289.15 629.333 1253.8 652.103 1229.7 C 668.444 1212.4 697.713 1193.2 711.376 1174.08 C 715.443 1168.39 717.396 1144.13 718.751 1136.56 L 718.911 1135.7 z"/>
<path transform="translate(0,0)" fill="rgb(98,140,156)" d="M 286.395 1435.43 L 287.925 1436.36 C 294.166 1440.24 291.288 1441.3 298.779 1441.66 C 309.886 1456.2 323.085 1468.34 335.718 1481.45 C 350.02 1496.3 365.498 1509.21 380.704 1523.02 C 381.162 1523.44 380.903 1527.91 380.814 1528.75 C 362.093 1516.44 297.705 1454.82 286.395 1435.43 z"/>
<path transform="translate(0,0)" fill="rgb(75,111,126)" d="M 357.83 778.068 C 375.986 772.373 391.616 767.753 410.139 763.376 L 411.367 764.98 L 410.525 765.315 C 408.041 766.321 407.207 766.467 405.321 768.426 C 408.837 767.884 412.604 766.893 416.099 766.078 L 417.006 768.332 C 373.48 777.905 335.562 792.607 294.652 810.283 C 282.506 815.532 261.817 824.346 251.02 831.708 L 250.961 829.186 C 270.226 817.263 310.714 801.533 332.982 792.831 L 332.336 788.222 C 340.851 784.88 349.349 781.496 357.83 778.068 z"/>
<path transform="translate(0,0)" fill="rgb(101,143,135)" d="M 357.83 778.068 C 375.986 772.373 391.616 767.753 410.139 763.376 L 411.367 764.98 L 410.525 765.315 C 408.041 766.321 407.207 766.467 405.321 768.426 C 377.617 776.903 360.883 781.197 332.982 792.831 L 332.336 788.222 C 340.851 784.88 349.349 781.496 357.83 778.068 z"/>
<path transform="translate(0,0)" fill="rgb(88,124,146)" d="M 722.034 1099.26 L 723.634 1096.57 C 725.793 1095.52 725.637 1095.57 727.132 1093.67 C 726.846 1098.49 725.01 1133.26 724.304 1135.86 C 723.325 1135.66 723.957 1135.7 722.434 1136.2 L 721.472 1139.74 L 720.992 1137.34 L 719.638 1137.06 L 718.911 1135.7 C 718.646 1130.56 720.534 1103.82 722.034 1099.26 z"/>
<path transform="translate(0,0)" fill="url(#Gradient13)" d="M 724.674 200.291 C 743.943 193.439 763.403 185.129 783.256 180.467 L 784.185 181.801 C 782.266 183.444 782.618 182.501 782.194 184.439 C 787.124 183.711 790.068 182.473 794.034 185.077 C 774.612 189.616 761.612 193.375 742.943 200.576 C 745.09 210.188 755.469 199.889 760.713 210.109 C 765.399 210.072 775.439 209.34 778.816 212.7 C 777.04 216.965 773.873 221.283 771.277 225.193 C 780.362 241.468 768.226 243.922 762.809 256.676 L 761.915 257.24 C 760.665 258.045 761.147 257.695 760.044 258.644 C 763.022 282.816 748.775 276.606 746.849 288.133 C 749.958 288.117 751.634 287.512 754.202 287.55 L 753.262 288.031 C 735.827 296.732 712.113 303.374 693.791 311.068 C 668.351 321.75 643.746 334.168 619.088 346.539 C 551.329 380.382 485.924 418.748 423.319 461.376 C 379.46 491.652 335.225 526.189 294.883 561.03 C 287.34 567.545 278.734 573.907 271.5 580.881 C 258.192 596.924 228.676 624.322 220.663 642.517 C 225.166 641.298 230.363 625.155 237.131 623.49 C 237.361 625.475 235.32 627.393 233.801 629.578 L 238.551 628.138 C 227.24 642.18 217.806 657.636 210.488 674.114 C 191.921 716.474 179.43 783.296 173.171 829.088 C 155.096 961.4 153.269 1095.43 167.73 1228.18 C 173.497 1275.5 181.476 1322.53 191.641 1369.1 C 192.917 1374.29 193.942 1378.5 195.66 1383.57 C 202.531 1405.8 204.646 1418.84 216.675 1439.87 C 234.905 1471.73 255.09 1491.51 281.036 1516.8 C 345.837 1579.98 423.089 1633.38 500.008 1680.85 C 546.433 1710.4 582.555 1726.15 629.532 1751.26 C 658.188 1765.73 685.383 1780.28 715.841 1790.57 C 733.265 1796.45 750.681 1804.94 768.062 1811.19 C 780.033 1814.69 799.829 1821.61 811.411 1826.3 C 832.292 1832.04 849.95 1836.26 871.113 1841.27 C 866.819 1841.75 861.458 1842.66 857.301 1842.08 L 859.163 1845.66 C 855.176 1844.39 850.736 1843.77 846.622 1842.77 C 824.007 1837.26 801.894 1829.41 779.704 1822.3 L 777.953 1824.04 C 779.25 1829.9 782.856 1824.38 780.106 1829.8 C 778.157 1830.28 777.596 1830.41 775.783 1831.35 C 777.475 1838.28 780.108 1833 779.663 1838.28 C 774.926 1842.48 771.84 1841.28 769.209 1845.01 C 769.127 1852.45 773.046 1856.53 772.411 1863.15 C 771.914 1868.32 764.361 1871.71 766.085 1875.92 C 768.825 1877.63 773.564 1880.02 774.888 1882.65 C 772.79 1886.5 764.206 1888.58 760.099 1890.14 C 756.819 1891.38 760.842 1895.49 758.503 1896.82 L 757.559 1896.41 C 754.249 1895.03 753.887 1894.66 750.492 1894.98 C 748.862 1897.22 749.033 1896.11 748.956 1898.37 C 733.041 1893.55 705.566 1882.1 690.293 1875.04 L 684.011 1878.59 L 673.297 1873.86 C 566.236 1828.91 461.825 1768.24 365.486 1703.61 C 343.841 1689.28 322.621 1674.32 301.853 1658.74 C 293.934 1652.86 281.799 1644.23 274.637 1637.91 C 270.405 1635.12 248.539 1614.94 244.762 1610.88 C 164.454 1553.28 106.55 1452.76 88.8531 1357.01 C 82.912 1324.87 76.8188 1290.98 72.4178 1258.61 C 62.4842 1185.56 62.2873 1113.06 63.2414 1039.46 C 63.9451 988.683 60.7313 936.565 66.5982 886.091 C 71.1674 870.212 71.3856 853.952 73.5104 837.678 C 78.5524 799.06 83.0065 757.979 93.3933 720.452 C 105.184 677.851 120.005 634.935 143.123 597.073 C 201.24 501.892 341.115 399.173 437.876 344.481 C 440.566 342.052 464.647 328.118 468.684 325.723 C 532.965 287.517 599.626 253.466 668.257 223.779 C 687.194 215.61 704.913 206.514 724.674 200.291 z"/>
<path transform="translate(0,0)" fill="rgb(108,156,136)" d="M 66.5982 886.091 C 68.5685 887.251 71.3217 888.486 71.1269 891.034 C 70.5101 899.102 73.7798 912.864 73.5213 920.141 C 70.5683 956.572 71.4046 994.414 70.8386 1030.8 C 69.3009 1129.64 74.5983 1227.45 92.898 1324.77 C 100.79 1366.73 109.643 1408.84 126.035 1448.56 C 141.789 1487.49 166.123 1521.75 192.745 1553.96 C 208.069 1572.49 224.745 1586.06 242.217 1602.01 L 240.826 1604.27 C 242.221 1606.28 243.927 1608.62 244.762 1610.88 C 164.454 1553.28 106.55 1452.76 88.8531 1357.01 C 82.912 1324.87 76.8188 1290.98 72.4178 1258.61 C 62.4842 1185.56 62.2873 1113.06 63.2414 1039.46 C 63.9451 988.683 60.7313 936.565 66.5982 886.091 z"/>
<path transform="translate(0,0)" fill="url(#Gradient12)" d="M 437.876 344.481 L 439.27 345.228 C 444.241 343.186 446.654 341.711 451.17 339.009 L 452.057 339.748 C 444.774 349.463 404.939 361.325 402.155 373.865 C 399.068 377.215 390.166 382.53 386.117 385.238 C 374.208 393.145 362.35 401.128 350.543 409.187 C 289.536 451.214 210.312 516.913 166.351 576.662 C 97.8958 669.703 84.9948 807.694 73.5213 920.141 C 73.7798 912.864 70.5101 899.102 71.1269 891.034 C 71.3217 888.486 68.5685 887.251 66.5982 886.091 C 71.1674 870.212 71.3856 853.952 73.5104 837.678 C 78.5524 799.06 83.0065 757.979 93.3933 720.452 C 105.184 677.851 120.005 634.935 143.123 597.073 C 201.24 501.892 341.115 399.173 437.876 344.481 z"/>
<path transform="translate(0,0)" fill="rgb(75,111,126)" d="M 189 1383.9 C 192.459 1382.25 192.643 1382.78 195.66 1383.57 C 202.531 1405.8 204.646 1418.84 216.675 1439.87 C 234.905 1471.73 255.09 1491.51 281.036 1516.8 C 345.837 1579.98 423.089 1633.38 500.008 1680.85 C 546.433 1710.4 582.555 1726.15 629.532 1751.26 C 658.188 1765.73 685.383 1780.28 715.841 1790.57 C 733.265 1796.45 750.681 1804.94 768.062 1811.19 C 780.033 1814.69 799.829 1821.61 811.411 1826.3 C 832.292 1832.04 849.95 1836.26 871.113 1841.27 C 866.819 1841.75 861.458 1842.66 857.301 1842.08 L 859.163 1845.66 C 855.176 1844.39 850.736 1843.77 846.622 1842.77 C 824.007 1837.26 801.894 1829.41 779.704 1822.3 C 749.041 1809.18 715.414 1798.97 685.068 1785.38 C 641.589 1763.43 596.833 1743.41 554.197 1719.63 C 452.969 1663.18 354.485 1597.86 271.502 1516.6 C 223.56 1469.65 208.375 1447.75 189 1383.9 z"/>
<path transform="translate(0,0)" fill="rgb(98,140,156)" d="M 629.532 1751.26 C 658.188 1765.73 685.383 1780.28 715.841 1790.57 C 733.265 1796.45 750.681 1804.94 768.062 1811.19 L 758.757 1811.7 C 738.389 1805.15 642.383 1766.43 629.478 1754.48 L 629.532 1751.26 z"/>
<path transform="translate(0,0)" fill="rgb(88,124,146)" d="M 811.411 1826.3 C 832.292 1832.04 849.95 1836.26 871.113 1841.27 C 866.819 1841.75 861.458 1842.66 857.301 1842.08 C 837.044 1839.01 822.164 1833.63 802.924 1827.32 L 811.411 1826.3 z"/>
<path transform="translate(0,0)" fill="rgb(98,140,156)" d="M 768.062 1811.19 C 780.033 1814.69 799.829 1821.61 811.411 1826.3 L 802.924 1827.32 C 789.465 1822.94 771.354 1817.36 758.757 1811.7 L 768.062 1811.19 z"/>
<path transform="translate(0,0)" fill="rgb(75,111,126)" d="M 220.663 642.517 C 225.166 641.298 230.363 625.155 237.131 623.49 C 237.361 625.475 235.32 627.393 233.801 629.578 L 238.551 628.138 C 227.24 642.18 217.806 657.636 210.488 674.114 C 191.921 716.474 179.43 783.296 173.171 829.088 C 155.096 961.4 153.269 1095.43 167.73 1228.18 C 173.497 1275.5 181.476 1322.53 191.641 1369.1 C 188.549 1367.91 186.333 1366.38 183.53 1364.65 C 178.884 1334.61 171.159 1303.15 166.596 1272.62 C 160.289 1236.51 158.124 1201.03 155.235 1164.64 C 150.529 1105.35 148.83 1044.34 151.203 984.772 C 153.405 938.133 157.761 891.62 164.258 845.384 C 171.252 792.567 179.718 742.068 197.61 691.68 C 201.847 679.749 212.634 650.741 220.663 642.517 z"/>
<path transform="translate(0,0)" fill="url(#Gradient11)" d="M 242.217 1602.01 C 245.886 1605.2 254.811 1612.58 257.464 1615.94 C 296.519 1649.6 326.338 1670.24 369.382 1699.3 C 433.888 1743.24 501.027 1783.19 570.422 1818.91 C 600.961 1834.87 631.193 1850.81 663.27 1863.49 C 666.851 1864.9 672.969 1867.26 676.163 1869.23 L 673.297 1873.86 C 566.236 1828.91 461.825 1768.24 365.486 1703.61 C 343.841 1689.28 322.621 1674.32 301.853 1658.74 C 293.934 1652.86 281.799 1644.23 274.637 1637.91 C 270.405 1635.12 248.539 1614.94 244.762 1610.88 C 243.927 1608.62 242.221 1606.28 240.826 1604.27 L 242.217 1602.01 z"/>
<path transform="translate(0,0)" fill="rgb(101,143,135)" d="M 242.217 1602.01 C 245.886 1605.2 254.811 1612.58 257.464 1615.94 L 257.044 1617.66 C 261.251 1622.92 274.283 1633.6 274.637 1637.91 C 270.405 1635.12 248.539 1614.94 244.762 1610.88 C 243.927 1608.62 242.221 1606.28 240.826 1604.27 L 242.217 1602.01 z"/>
<path transform="translate(0,0)" fill="rgb(75,111,126)" d="M 724.674 200.291 C 743.943 193.439 763.403 185.129 783.256 180.467 L 784.185 181.801 C 782.266 183.444 782.618 182.501 782.194 184.439 C 787.124 183.711 790.068 182.473 794.034 185.077 C 774.612 189.616 761.612 193.375 742.943 200.576 C 665.567 229.183 590.644 264.03 518.913 304.774 C 495.962 317.686 473.209 330.946 450.661 344.549 C 436.277 353.291 416.453 366.168 402.155 373.865 C 404.939 361.325 444.774 349.463 452.057 339.748 L 451.17 339.009 C 446.654 341.711 444.241 343.186 439.27 345.228 L 437.876 344.481 C 440.566 342.052 464.647 328.118 468.684 325.723 C 532.965 287.517 599.626 253.466 668.257 223.779 C 687.194 215.61 704.913 206.514 724.674 200.291 z"/>
<path transform="translate(0,0)" fill="rgb(88,124,146)" d="M 724.674 200.291 C 743.943 193.439 763.403 185.129 783.256 180.467 L 784.185 181.801 C 782.266 183.444 782.618 182.501 782.194 184.439 C 773.977 187.251 732.273 202.564 726.706 203.254 L 724.674 200.291 z"/>
<path transform="translate(0,0)" fill="rgb(98,140,156)" d="M 183.53 1364.65 C 186.333 1366.38 188.549 1367.91 191.641 1369.1 C 192.917 1374.29 193.942 1378.5 195.66 1383.57 C 192.643 1382.78 192.459 1382.25 189 1383.9 C 186.936 1378.33 185.099 1370.56 183.53 1364.65 z"/>
<path transform="translate(0,0)" fill="rgb(98,140,156)" d="M 676.163 1869.23 C 681.048 1871.13 685.5 1872.89 690.293 1875.04 L 684.011 1878.59 L 673.297 1873.86 L 676.163 1869.23 z"/>
<path transform="translate(0,0)" fill="rgb(47,63,104)" d="M 921.95 253.979 C 952.726 253.929 987.063 267.598 1016.84 277.453 C 1166.76 326.466 1307.62 399.736 1433.82 494.347 C 1448.42 505.436 1462.84 516.761 1477.06 528.319 C 1481.49 531.873 1491.96 539.772 1495.37 543.185 C 1496 543.816 1496.62 544.453 1497.24 545.096 C 1496.66 546.688 1497.16 546.079 1495.82 546.973 C 1478.47 531.977 1455.16 514.473 1436.85 500.541 C 1310.76 404.907 1169.58 331.025 1019.13 281.953 C 992.101 273.2 955.262 259.561 927.91 257.746 C 896.637 255.671 863.296 258.146 833.156 267.064 C 804.883 275.43 772.191 287.033 744.793 298.179 C 726.929 305.447 707.306 311.67 690.043 318.845 C 660.561 331.098 631.93 346.993 603.715 361.321 C 559.464 383.793 516.925 407.47 475.227 434.479 C 462.796 442.531 432.543 460.407 422.66 469.28 C 404.21 480.239 373.714 505.748 356.193 519.27 C 313.638 552.111 271.446 585.133 238.551 628.138 L 233.801 629.578 C 235.32 627.393 237.361 625.475 237.131 623.49 C 230.363 625.155 225.166 641.298 220.663 642.517 C 228.676 624.322 258.192 596.924 271.5 580.881 C 278.734 573.907 287.34 567.545 294.883 561.03 C 335.225 526.189 379.46 491.652 423.319 461.376 C 485.924 418.748 551.329 380.382 619.088 346.539 C 643.746 334.168 668.351 321.75 693.791 311.068 C 712.113 303.374 735.827 296.732 753.262 288.031 L 754.202 287.55 C 756.243 287.471 776.413 279.759 779.577 278.634 C 807.223 268.804 834.459 258.754 863.577 254.223 C 868.564 257.644 910.433 253.922 921.95 253.979 z"/>
<path transform="translate(0,0)" fill="rgb(50,60,122)" d="M 1650.91 874.77 C 1653.25 883.967 1653.62 895.37 1654.76 905.025 C 1658.23 934.602 1657.46 962.331 1658.98 992.048 C 1660.45 1020.58 1666.19 1053.86 1662.82 1082.81 C 1660.93 1098.95 1658.03 1117.4 1657.65 1133.34 C 1657.26 1149.94 1658.96 1194.11 1654.14 1208.72 C 1649.86 1248.35 1642.39 1286.1 1636.78 1325.01 C 1626.89 1375.25 1611.38 1438.35 1576.25 1477.05 C 1467.29 1597.07 1325.76 1686.21 1180.93 1756.71 C 1164.94 1764.49 1145.93 1775.96 1130.19 1782.71 C 1128.2 1782.19 1127.05 1781.92 1125.01 1782.75 C 1082.84 1800.07 1038.63 1818.36 995.069 1831.71 C 997.583 1830.07 1000.2 1829.82 1001.94 1827.62 L 1000.23 1826.22 C 1039.14 1811.72 1084.57 1798.12 1122.32 1780.43 C 1287.46 1702.69 1454.04 1606.69 1577.24 1469.58 C 1622.58 1408.94 1628.98 1322.99 1639.89 1251.96 C 1649.98 1186.28 1658.52 1126.11 1658.25 1060.88 C 1657.99 1000.8 1652.14 936.354 1644.62 877.725 C 1649.38 882.281 1651.06 894.158 1652.48 900.819 C 1652.76 891.979 1650 883.5 1650.91 874.77 z"/>
<path transform="translate(0,0)" fill="rgb(47,63,104)" d="M 1636.78 1325.01 C 1632.43 1318.02 1648.59 1213.51 1654.14 1208.72 C 1649.86 1248.35 1642.39 1286.1 1636.78 1325.01 z"/>
<path transform="translate(0,0)" fill="rgb(47,63,104)" d="M 1746.65 1134.3 L 1748.33 1134.43 C 1752.81 1131.14 1750.71 1116.19 1753.17 1110.62 C 1753.46 1122.72 1753.29 1138.57 1752.16 1150.6 C 1751.04 1169.72 1748.81 1188.83 1747.68 1207.83 C 1746.52 1238.64 1744.79 1264 1738.74 1294.28 C 1738.08 1297.57 1736.44 1310.3 1735.45 1312.66 C 1731.44 1337.07 1723.24 1377.42 1714.42 1400.3 C 1712.76 1409.76 1707.58 1422.73 1704.23 1431.93 C 1688.1 1476.28 1663.56 1518.94 1630.73 1553.19 C 1617.82 1567.97 1584.42 1600.81 1569.16 1613.75 C 1559.47 1624.19 1547.78 1631.96 1536.74 1640.87 C 1462.96 1700.45 1381.49 1750.65 1298.81 1796.83 C 1288.4 1802.65 1278.27 1809.51 1267.76 1814.89 C 1229.37 1834.42 1193.31 1852.81 1153.22 1868.81 C 1150.31 1868.84 1148.73 1868.98 1145.84 1868.33 L 1146.03 1866.54 C 1154.45 1861.23 1172 1855.33 1181.72 1851.06 C 1249.25 1821.42 1314.84 1782.26 1378.21 1744.73 C 1427.03 1715.33 1474.02 1683.01 1518.94 1647.94 C 1549.19 1624.32 1571.19 1605.3 1598.14 1577.89 C 1627.7 1547.82 1652.02 1523.86 1672.41 1485.86 C 1704.27 1426.48 1720.71 1362.29 1731.01 1296.08 C 1733.28 1281.6 1737.54 1260.34 1738.56 1245.93 C 1740.15 1222.5 1741.03 1198.19 1743.78 1174.86 C 1744.9 1165.3 1744.39 1141.71 1746.65 1134.3 z"/>
<path transform="translate(0,0)" fill="rgb(50,60,122)" d="M 1744.94 1194.88 C 1746.64 1182.65 1744.07 1159.55 1752.16 1150.6 C 1751.04 1169.72 1748.81 1188.83 1747.68 1207.83 C 1746.52 1238.64 1744.79 1264 1738.74 1294.28 C 1738.08 1297.57 1736.44 1310.3 1735.45 1312.66 C 1731.44 1337.07 1723.24 1377.42 1714.42 1400.3 L 1712.59 1400.75 C 1710.62 1404.44 1709 1409.49 1707.17 1412.15 C 1712.46 1395.75 1731.39 1330.62 1730.21 1315.46 C 1731.35 1311.98 1732.95 1301.07 1733.73 1296.93 C 1737.62 1276.37 1740.9 1256.47 1742.43 1235.56 C 1743.15 1225.82 1741.7 1203.06 1744.94 1194.88 z"/>
<path transform="translate(0,0)" fill="rgb(63,86,128)" d="M 1707.17 1412.15 C 1709 1409.49 1710.62 1404.44 1712.59 1400.75 L 1714.42 1400.3 C 1712.76 1409.76 1707.58 1422.73 1704.23 1431.93 C 1688.1 1476.28 1663.56 1518.94 1630.73 1553.19 L 1625.74 1553.27 C 1662.39 1519.07 1691.34 1458.81 1707.17 1412.15 z"/>
<path transform="translate(0,0)" fill="rgb(63,86,128)" d="M 1569.16 1613.75 L 1567.4 1612.79 C 1567.55 1611.01 1619.44 1559.6 1625.74 1553.27 L 1630.73 1553.19 C 1617.82 1567.97 1584.42 1600.81 1569.16 1613.75 z"/>
<path transform="translate(0,0)" fill="url(#Gradient10)" d="M 1610.92 530.425 C 1617.89 528.837 1619.69 536.147 1625.88 537.675 C 1638.6 549.096 1670.11 593.53 1678.74 609.141 C 1712.95 670.974 1729.88 746.024 1738.91 815.6 C 1741.82 838.024 1746.64 854.865 1746.91 878.507 C 1747.2 903.698 1751.75 931.529 1752.59 956.607 C 1753.72 990.254 1753.65 1024.65 1754.06 1058.32 C 1754.17 1067.1 1754.44 1103.74 1753.17 1110.62 C 1750.71 1116.19 1752.81 1131.14 1748.33 1134.43 L 1746.65 1134.3 C 1746.38 1106.04 1748.99 1077.41 1747.97 1048.56 C 1743.08 910.832 1739.48 763.78 1684.14 635.513 C 1667.29 596.462 1639.58 561.631 1610.92 530.425 z"/>
<path transform="translate(0,0)" fill="rgb(50,60,122)" d="M 1348.33 328.487 C 1408.99 362.435 1467.09 400.766 1522.17 443.176 C 1553.21 467.506 1601.09 507.654 1625.88 537.675 C 1619.69 536.147 1617.89 528.837 1610.92 530.425 C 1603.06 525.293 1589.63 508.753 1581.59 501.52 C 1505.7 433.306 1424.33 380.992 1337.01 328.528 C 1343.17 328.61 1342.29 332.768 1348.33 328.487 z"/>
<path transform="translate(0,0)" fill="rgb(88,124,146)" d="M 690.293 1875.04 C 705.566 1882.1 733.041 1893.55 748.956 1898.37 C 809.836 1920.52 886.447 1933.8 951.253 1926.94 C 971.113 1924.84 996.639 1917.59 1016.75 1913.61 C 1020 1915.65 1022.83 1915.35 1024.67 1916.73 C 1013.62 1920.94 997.653 1923.59 985.995 1926.56 C 883.796 1952.61 777.86 1919.82 684.011 1878.59 L 690.293 1875.04 z"/>
<path transform="translate(0,0)" fill="rgb(50,60,122)" d="M 925.662 250.604 C 959.012 254.307 989.31 266.13 1021.14 276.655 C 1179.46 328.837 1327.53 408.097 1458.75 510.908 C 1489.63 534.852 1539.29 576.389 1564.13 606.735 C 1555.76 606.901 1558.4 596.94 1548.95 598.025 C 1531.31 579.687 1513.12 564.425 1495.82 546.973 C 1497.16 546.079 1496.66 546.688 1497.24 545.096 C 1496.62 544.453 1496 543.816 1495.37 543.185 C 1491.96 539.772 1481.49 531.873 1477.06 528.319 C 1462.84 516.761 1448.42 505.436 1433.82 494.347 C 1307.62 399.736 1166.76 326.466 1016.84 277.453 C 987.063 267.598 952.726 253.929 921.95 253.979 L 925.662 250.604 z"/>
<path transform="translate(0,0)" fill="rgb(47,63,104)" d="M 1548.95 598.025 C 1558.4 596.94 1555.76 606.901 1564.13 606.735 C 1577.2 618.597 1598.44 647.847 1605.13 663.997 C 1632.35 729.69 1642.28 804.241 1650.9 874.446 C 1650.91 874.554 1650.91 874.662 1650.91 874.77 C 1650 883.5 1652.76 891.979 1652.48 900.819 C 1651.06 894.158 1649.38 882.281 1644.62 877.725 C 1637.03 851.7 1638.51 830.923 1635.65 805.381 C 1631.9 771.915 1624.62 737.57 1614.18 705.591 C 1608.66 688.714 1606.48 674.837 1596.98 658.684 C 1582.96 634.825 1567.81 617.85 1548.95 598.025 z"/>
<path transform="translate(0,0)" fill="rgb(88,124,146)" d="M 805.102 175.005 C 884.29 158.213 959.363 157.599 1036.72 183.917 C 1037.29 185.506 1037.29 184.744 1036.88 186.196 C 1027.96 185.388 1018.25 179.091 1009.68 179.643 C 989.987 176.271 947.624 166.167 928.921 171.859 C 921.259 173.182 906.156 171.758 897.263 172.428 C 874.049 174.177 850.609 175.741 827.524 178.786 C 818.77 176.101 811.287 177.66 805.102 175.005 z"/>
<path transform="translate(0,0)" fill="url(#Gradient9)" d="M 995.069 1831.71 C 1038.63 1818.36 1082.84 1800.07 1125.01 1782.75 C 1127.05 1781.92 1128.2 1782.19 1130.19 1782.71 C 1103.57 1795.67 1068.6 1807.56 1040.85 1818.04 C 970.383 1844.66 934.533 1857.27 859.163 1845.66 L 857.301 1842.08 C 861.458 1842.66 866.819 1841.75 871.113 1841.27 C 885.206 1842.78 899.382 1843.39 913.553 1843.1 C 919.119 1843.01 929.418 1842.11 933.824 1842.22 C 960.101 1837.44 974.874 1834.64 1000.23 1826.22 L 1001.94 1827.62 C 1000.2 1829.82 997.583 1830.07 995.069 1831.71 z"/>
<path transform="translate(0,0)" fill="rgb(88,124,146)" d="M 1000.23 1826.22 L 1001.94 1827.62 C 1000.2 1829.82 997.583 1830.07 995.069 1831.71 C 983.71 1837.13 945.906 1847.39 933.824 1842.22 C 960.101 1837.44 974.874 1834.64 1000.23 1826.22 z"/>
<path transform="translate(0,0)" fill="rgb(63,86,128)" d="M 928.921 171.859 C 947.624 166.167 989.987 176.271 1009.68 179.643 C 1018.25 179.091 1027.96 185.388 1036.88 186.196 C 1037.29 184.744 1037.29 185.506 1036.72 183.917 C 1050.85 189.144 1065.5 194.815 1079.86 199.167 L 1078.19 201.922 L 1078.6 203.05 C 1086.76 206.005 1103.42 211.533 1110.08 215.147 L 1110.91 217.097 C 1057.69 195.839 985.852 171.033 928.921 171.859 z"/>
<path transform="translate(0,0)" fill="rgb(78,107,151)" d="M 1009.68 179.643 C 1018.25 179.091 1027.96 185.388 1036.88 186.196 C 1037.29 184.744 1037.29 185.506 1036.72 183.917 C 1050.85 189.144 1065.5 194.815 1079.86 199.167 L 1078.19 201.922 L 1078.6 203.05 C 1070.89 201.026 1056.35 195.454 1048.33 192.685 C 1035.68 188.316 1022.08 184.203 1009.68 179.643 z"/>
<path transform="translate(0,0)" fill="url(#Gradient8)" d="M 1134.65 220.761 C 1165.29 233.228 1186.73 245.084 1215.87 257.791 C 1220.97 260.358 1247.32 273.241 1249.9 276.744 C 1243.18 277.657 1236.96 267.565 1228.7 270.667 C 1225.79 270.101 1162.53 239.411 1155.75 235.505 C 1152.34 229.834 1143.7 231.878 1134.65 220.761 z"/>
<path transform="translate(0,0)" fill="url(#Gradient7)" d="M 1278.94 291.28 C 1295.92 300.076 1334.14 318.562 1348.33 328.487 C 1342.29 332.768 1343.17 328.61 1337.01 328.528 C 1334.1 327.505 1320.68 320.256 1317.39 318.511 L 1277.88 297.373 C 1279.11 296.789 1280.36 296.228 1281.61 295.688 L 1278.94 291.28 z"/>
<path transform="translate(0,0)" fill="url(#Gradient6)" d="M 1079.86 199.167 C 1095.04 204.034 1120.83 213.168 1134.65 220.761 C 1143.7 231.878 1152.34 229.834 1155.75 235.505 L 1110.91 217.097 L 1110.08 215.147 C 1103.42 211.533 1086.76 206.005 1078.6 203.05 L 1078.19 201.922 L 1079.86 199.167 z"/>
<path transform="translate(0,0)" fill="rgb(78,107,151)" d="M 1060.73 1901.07 C 1083.58 1892.17 1106.34 1883.02 1129 1873.62 C 1126.96 1876.04 1125.1 1877.09 1126.08 1880.63 C 1120.18 1883.78 1090.39 1896.03 1084.02 1897.45 C 1074.85 1896.04 1067.26 1902.45 1060.73 1901.07 z"/>
<path transform="translate(0,0)" fill="rgb(63,86,128)" d="M 1228.7 270.667 C 1236.96 267.565 1243.18 277.657 1249.9 276.744 C 1254.92 278.194 1274.8 288.326 1278.94 291.28 L 1281.61 295.688 C 1280.36 296.228 1279.11 296.789 1277.88 297.373 C 1264.51 288.835 1242.71 280.628 1228.7 270.667 z"/>
<path transform="translate(0,0)" fill="rgb(63,86,128)" d="M 863.577 254.223 C 877.672 249.426 910.907 247.616 925.662 250.604 L 921.95 253.979 C 910.433 253.922 868.564 257.644 863.577 254.223 z"/>
<path transform="translate(0,0)" fill="url(#Gradient5)" d="M 1060.73 1901.07 C 1067.26 1902.45 1074.85 1896.04 1084.02 1897.45 C 1066.07 1904.81 1049 1912.17 1029.77 1915.65 C 1027.32 1915.24 1028.3 1915.86 1026.62 1914.03 L 1027.28 1911.18 C 1037.64 1908.58 1050.37 1904.29 1060.73 1901.07 z"/>
<path transform="translate(0,0)" fill="rgb(79,110,143)" d="M 783.256 180.467 C 790.303 177.811 797.634 175.978 805.102 175.005 C 811.287 177.66 818.77 176.101 827.524 178.786 C 816.791 180.155 804.708 182.793 794.034 185.077 C 790.068 182.473 787.124 183.711 782.194 184.439 C 782.618 182.501 782.266 183.444 784.185 181.801 L 783.256 180.467 z"/>
<path transform="translate(0,0)" fill="url(#Gradient4)" d="M 1129 1873.62 C 1133.89 1871.33 1141 1867.67 1146.03 1866.54 L 1145.84 1868.33 C 1148.73 1868.98 1150.31 1868.84 1153.22 1868.81 C 1146.73 1871.71 1132.15 1878.64 1126.08 1880.63 C 1125.1 1877.09 1126.96 1876.04 1129 1873.62 z"/>
<path transform="translate(0,0)" fill="rgb(78,107,151)" d="M 1016.75 1913.61 L 1027.28 1911.18 L 1026.62 1914.03 C 1028.3 1915.86 1027.32 1915.24 1029.77 1915.65 L 1024.67 1916.73 C 1022.83 1915.35 1020 1915.65 1016.75 1913.61 z"/>
<path transform="translate(0,0)" fill="url(#Gradient3)" d="M 350.372 590.819 C 398.256 548.866 445.193 516.37 498.599 482.415 C 528.501 463.024 559.115 444.754 590.379 427.645 C 619.903 411.681 649.355 397.518 679.475 382.892 C 692.565 376.536 695.581 376.753 708.787 381.152 C 750.849 398.742 789.535 417.378 827.939 442.253 C 839.365 449.654 850.774 455.857 861.369 464.638 C 896.948 492.049 930.642 517.784 961.319 550.673 C 974.989 565.329 985.779 574.957 997.352 591.83 C 999.717 594.976 1002.31 598.28 1004.53 601.499 C 1000.48 606.487 973.971 631.256 968.022 635.435 C 959.892 643.561 951.108 650.542 942.94 658.603 C 928.765 672.592 915.081 688.454 901.472 702.769 C 887.259 717.719 866.445 751.349 850.609 762.115 C 805.313 747.266 761.526 734.03 714.496 725.123 C 703.822 723.101 691.952 723.584 682.039 721.899 C 663.951 718.824 651.926 715.981 633.259 715.196 C 589.913 711.693 546.338 712.166 503.078 716.609 C 491.527 717.871 480.416 720.156 468.958 721.845 C 456.42 723.693 443.025 723.75 430.578 726.381 C 382.245 736.598 334.819 752.211 289.727 772.409 C 277.173 778.032 264.433 784.218 251.614 788.77 C 248.505 790.333 240.775 792.75 237.101 793.993 C 234.59 760.192 258.208 699.876 277.214 671.651 C 286.234 651.391 333.492 609.347 350.372 590.819 z"/>
<path transform="translate(0,0)" fill="rgb(63,86,128)" d="M 350.372 590.819 C 398.256 548.866 445.193 516.37 498.599 482.415 C 528.501 463.024 559.115 444.754 590.379 427.645 C 619.903 411.681 649.355 397.518 679.475 382.892 C 692.565 376.536 695.581 376.753 708.787 381.152 C 750.849 398.742 789.535 417.378 827.939 442.253 C 839.365 449.654 850.774 455.857 861.369 464.638 C 896.948 492.049 930.642 517.784 961.319 550.673 C 974.989 565.329 985.779 574.957 997.352 591.83 C 995.943 594.165 995.539 594.084 995.474 596.438 C 922.759 516.076 847.508 450.985 747.921 405.296 C 690.469 378.939 701.456 378.557 646.639 405.331 C 598.708 429.051 552.127 455.405 507.109 484.273 C 437.078 528.665 384.112 566.123 325.327 625.18 C 318.433 632.096 311.622 639.094 304.894 646.173 L 302.58 645.44 C 293.236 652.296 281.622 670.654 277.214 671.651 C 286.234 651.391 333.492 609.347 350.372 590.819 z"/>
<path transform="translate(0,0)" fill="rgb(88,124,146)" d="M 708.787 381.152 C 750.849 398.742 789.535 417.378 827.939 442.253 C 839.365 449.654 850.774 455.857 861.369 464.638 C 859.686 465.698 859.253 466.56 857.098 466.02 C 853.523 465.124 826.53 446.305 821.655 443.284 C 795.714 427.208 769.491 413.384 741.873 400.431 C 737.089 398.187 709.021 386.957 707.511 384.023 L 708.787 381.152 z"/>
<path transform="translate(0,0)" fill="rgb(75,111,126)" d="M 995.474 596.438 C 995.539 594.084 995.943 594.165 997.352 591.83 C 999.717 594.976 1002.31 598.28 1004.53 601.499 C 1000.48 606.487 973.971 631.256 968.022 635.435 C 959.892 643.561 951.108 650.542 942.94 658.603 C 928.765 672.592 915.081 688.454 901.472 702.769 C 887.259 717.719 866.445 751.349 850.609 762.115 C 805.313 747.266 761.526 734.03 714.496 725.123 C 703.822 723.101 691.952 723.584 682.039 721.899 C 663.951 718.824 651.926 715.981 633.259 715.196 C 589.913 711.693 546.338 712.166 503.078 716.609 C 491.527 717.871 480.416 720.156 468.958 721.845 C 456.42 723.693 443.025 723.75 430.578 726.381 C 382.245 736.598 334.819 752.211 289.727 772.409 C 277.173 778.032 264.433 784.218 251.614 788.77 C 252.087 787.834 252.182 787.14 252.456 786.105 C 249.578 785.764 246.069 788.037 241.832 789.099 L 240.441 788.184 L 240.643 785.728 C 241.724 785.773 242.806 785.802 243.889 785.815 C 253.475 783.951 265.75 777.501 274.982 773.409 C 288.195 767.606 301.444 761.886 314.729 756.249 C 337.417 746.651 369.439 736.41 393.3 730.433 C 506.963 701.052 626.011 699.327 740.478 725.403 C 761.456 730.057 782.241 735.539 802.785 741.835 C 816.499 746.033 831.285 751.247 845.33 754.218 C 850.216 755.251 852.525 753.175 856.002 749.549 C 869.402 735.573 881.839 718.118 894.398 703.59 C 918.119 676.149 954.236 636.361 982.759 615.096 L 983.427 614.606 C 987.487 606.889 996.377 607.925 995.474 596.438 z"/>
<path transform="translate(0,0)" fill="rgb(79,110,143)" d="M 995.474 596.438 C 995.539 594.084 995.943 594.165 997.352 591.83 C 999.717 594.976 1002.31 598.28 1004.53 601.499 C 1000.48 606.487 973.971 631.256 968.022 635.435 C 965.722 634.702 966.252 635.335 965.01 633.879 C 969.405 626.519 980.046 623.921 983.427 614.606 C 987.487 606.889 996.377 607.925 995.474 596.438 z"/>
<path transform="translate(0,0)" fill="url(#Gradient2)" d="M 277.214 671.651 C 281.622 670.654 293.236 652.296 302.58 645.44 L 304.894 646.173 C 275.202 680.338 258.379 719.412 247.64 763.02 C 246.412 768.006 242.488 781.234 243.889 785.815 C 242.806 785.802 241.724 785.773 240.643 785.728 L 240.441 788.184 L 241.832 789.099 C 246.069 788.037 249.578 785.764 252.456 786.105 C 252.182 787.14 252.087 787.834 251.614 788.77 C 248.505 790.333 240.775 792.75 237.101 793.993 C 234.59 760.192 258.208 699.876 277.214 671.651 z"/>
<path transform="translate(0,0)" fill="url(#Gradient1)" d="M 662.141 1275.78 C 675.46 1259.85 696.343 1239.53 713.139 1227.16 C 716.524 1224.66 719.448 1224.18 723.424 1225.09 C 726.447 1244.7 725.122 1264.83 727.741 1284.5 C 741.442 1387.46 778.218 1485.73 831.996 1574.4 C 838.552 1585.21 846.562 1595.08 852.003 1606.49 C 853.474 1609.58 854.59 1612.62 852.045 1615.64 C 846.258 1622.75 834.904 1629.49 827.113 1634.46 C 778.23 1665.51 725.507 1690.07 670.277 1707.49 C 664.204 1705.57 604.709 1676.33 598.446 1672.07 C 573.7 1658.79 549.957 1645.16 526.255 1630.27 C 487.09 1605.67 482.715 1613.19 496.025 1566.85 C 511.211 1514.16 532.397 1463.39 559.166 1415.54 C 566.607 1402.05 575.824 1387.91 583.716 1374.19 C 601.587 1346.77 639.477 1297.24 662.141 1275.78 z"/>
<path transform="translate(0,0)" fill="rgb(88,124,146)" d="M 662.141 1275.78 C 675.46 1259.85 696.343 1239.53 713.139 1227.16 C 716.524 1224.66 719.448 1224.18 723.424 1225.09 C 715.295 1230.23 716.17 1223.81 710.567 1232.6 C 711.533 1233.55 710.942 1233.19 712.398 1233.57 C 712.564 1233.26 652.175 1294.18 649.916 1296.17 L 648.171 1296.14 C 650.849 1289.09 670.92 1275.48 673.195 1267.46 L 672.601 1268.08 C 669.477 1271.34 666.463 1274.48 662.141 1275.78 z"/>
</svg>